<?xml version="1.0" encoding="UTF-8"?>
<svg xmlns="http://www.w3.org/2000/svg" viewBox="0 0 806 436">
  <defs>
    <style>
      .cls-1 {
        fill: #eb996e;
      }

      .cls-2 {
        fill: #ffc7ae;
      }

      .cls-3 {
        fill: #fafafa;
      }

      .cls-4 {
        fill: #fcf7f2;
      }

      .cls-5 {
        fill: #ff842c;
      }

      .cls-6 {
        fill: #1a1b1c;
      }

      .cls-7 {
        fill: #455a64;
      }

      .cls-8 {
        fill: #263238;
      }

      .cls-9 {
        opacity: .3;
      }
    </style>
  </defs>
  <g id="Desk">
    <path class="cls-8" d="m792.81,435.67c0,.18-131.47.33-293.61.33s-293.63-.15-293.63-.33,131.44-.33,293.63-.33,293.61.15,293.61.33Z"/>
  </g>
  <g id="Character">
    <rect class="cls-4" y="0" width="806" height="435.33"/>
    <g>
      <path class="cls-2" d="m745.22,204.69s15.56-9.46,19.06-6.68c5.06,4.01,6.75,10.79,6.75,10.79,0,0,8.22-31.34,16.06-30.15,4.5.68,2.29,4.19.28,8.59-1.87,4.08-5.06,19.08-5.06,19.08,0,0,14.87-17.64,19.24-17.32,3.38.25,3.87,3.22-1,7.99-4.86,4.77-12.94,19.79-12.94,19.79,0,0,10.41-9.71,14.72-9.76,3.43-.04,5.65,2.34,1.21,6.2-4.44,3.86-11.16,6.75-14.75,13.72-4.42,8.6-13.84,30.02-13.84,30.02l-32.97-11.67s-5.37-21.87-5.58-27.19c0,0,.45-11.23.39-13.23-.06-2,5.24-2.51,6.85,1.33,1.61,3.84.88,7.87,1.53,10.42.65,2.55,1.82,4.92,3.68,6.06,1.87,1.14,6.62,1.22,7.83-.19,1.21-1.41,2.68-5.52,3.01-8.05.32-2.53-.09-6.52-.09-6.52,0,0-13.69,5.56-14.36-3.22Z"/>
      <g>
        <g>
          <path class="cls-2" d="m374.73,306.75l-22.91-8.58s-23.33-13.66-27.65-8.81c0,0-4.61-2.2-6.66,2.72-1.19,2.85,2.73,6.99,2.73,6.99,0,0-1.22,1.24.71,5.42,1.93,4.19,24.07,17.39,24.07,17.39,0,0,28.79,15.7,40.43,23.21l20.09-27.32-2.79-1.04s-1.66-13.61-7.23-17.24c-6.06-3.95-13.38-14.64-14.99-18.82s-9.34-2.25-8.05,6.44c1.29,8.69,8.05,10.95,7.41,16.75-.64,5.8-5.15,2.9-5.15,2.9Z"/>
          <path class="cls-1" d="m339.61,309.92c-.09.16-4.55-2.17-9.97-5.2-5.42-3.04-9.73-5.63-9.64-5.79.09-.16,4.55,2.17,9.97,5.2,5.41,3.03,9.73,5.63,9.64,5.79Z"/>
          <path class="cls-1" d="m350.79,303.48c-.04.08-1.6-.55-4.11-1.64-2.5-1.09-5.94-2.65-9.66-4.55-3.72-1.9-6.99-3.8-9.28-5.3-1.14-.76-2.05-1.38-2.66-1.86-.61-.46-.93-.74-.91-.78.06-.09,1.47.84,3.81,2.23,2.34,1.39,5.63,3.21,9.34,5.11,3.7,1.89,7.1,3.52,9.55,4.72,2.45,1.19,3.95,1.98,3.91,2.07Z"/>
          <path class="cls-1" d="m355.61,316.1s-.75-.35-2.03-1.1c-1.37-.82-3.2-1.91-5.4-3.22l-.06-.04-.03-.07c-1.01-2.19-2.27-4.76-3.89-7.45-.82-1.32-1.72-2.75-2.91-3.85-1.19-1.11-3.09-1.3-4.51-.34-.31.17-.68.54-.72.66.03.05.03.07.05.15l.09.28c.06.19.13.38.2.57.28.76.58,1.52.87,2.26.6,1.48,1.19,2.91,1.75,4.28,1.14,2.72,2.19,5.21,3.1,7.39l-.04-.07c1.88,2.21,3.44,4.03,4.61,5.4.49.59.89,1.09,1.23,1.5.28.35.41.54.39.56-.02.02-.19-.14-.5-.46-.36-.39-.8-.85-1.33-1.41-1.21-1.33-2.82-3.11-4.78-5.25l-.02-.03-.02-.04c-.95-2.14-2.04-4.62-3.21-7.35-.57-1.37-1.17-2.8-1.79-4.28-.3-.74-.6-1.5-.89-2.28-.07-.19-.15-.39-.21-.6l-.1-.31c-.04-.11-.06-.31-.07-.46.12-.4.3-.49.47-.68.17-.15.36-.29.55-.41.82-.52,1.8-.79,2.76-.71.97.06,1.85.53,2.54,1.11,1.32,1.24,2.19,2.67,3.02,4.03,1.62,2.74,2.83,5.34,3.81,7.57l-.09-.11c2.16,1.39,3.94,2.54,5.28,3.41,1.24.82,1.91,1.29,1.89,1.33Z"/>
        </g>
        <path class="cls-1" d="m378.58,316.33c-.03.09-1.1-.21-2.82-.69-1.71-.47-4.1-1.13-6.77-1.2-2.67-.06-5.05.69-6.53,1.6-1.5.9-2.17,1.82-2.26,1.74-.06-.02.49-1.08,2.01-2.13,1.49-1.06,4-1.93,6.8-1.87,2.8.07,5.21.83,6.9,1.41,1.69.6,2.7,1.06,2.67,1.14Z"/>
        <path class="cls-1" d="m376.86,310.27c.15.11-.42,1.11-.97,2.38-.56,1.27-.91,2.36-1.09,2.33-.18-.03-.11-1.24.48-2.59.59-1.35,1.44-2.22,1.58-2.11Z"/>
      </g>
      <g>
        <path class="cls-8" d="m508.92,201.35c1.58-10.8,14.16-26.28,25.28-26.3-6.38-9.25-6.48-22.25-.24-31.59,4.29-6.43,11.22-11.15,14.15-18.27,3.32-8.06.77-17.16,1.09-25.85.46-12.72,7.08-24.33,13.52-35.37,5.9-10.11,13.1-21.2,24.7-23.68,7.35-1.57,14.96.75,21.86,3.68,33,14.05,58.66,43.68,67.47,77.88,2.11,8.19,3.52,17.05,9.23,23.37,6.04,6.7,16.63,10.34,18.44,19.1,1.3,6.29-2.73,12.61-2.13,18.99.51,5.35,10.53,20.94,12.84,25.82,3.98,8.39,2.54,17.46-1.51,25.82-4.05,8.36-14.37,16.5-23.52,18.78l-102.29-34.09c-9.62,5.48-19.21,26.67-30.26,27.97-11.05,1.3-24.53,6.11-35.16-5.52-11.14-12.19-15.07-29.95-13.49-40.75Z"/>
        <path class="cls-8" d="m673.3,94.63c-1.14,8.56,1.2,22.71,5.88,30.02,3.14,4.91,8.38,8.1,13.55,10.91,5.17,2.81,10.58,5.5,14.5,9.84,3.92,4.34,6.02,10.84,3.4,16.03,9.21,3.43,13.35,15.17,9.97,24.25-3.38,9.08-12.65,15.19-22.33,17l-42.19-12.69-9.26-53.84,24.35-41.53"/>
        <path class="cls-7" d="m683.7,154.49s.29.1.82.36c.52.28,1.35.59,2.3,1.2,1.96,1.13,4.66,3.09,7.39,6.16,1.39,1.51,2.68,3.38,3.94,5.47,1.16,2.14,2.33,4.5,3.07,7.18,1.64,5.27,2,11.67.11,17.97l-.15-.39c2.43,1.35,4.77,3.12,6.86,5.22,5.39,5.34,8.46,12.29,9.2,18.78.72,6.55-.84,12.48-3.02,16.88-2.19,4.44-4.92,7.46-6.93,9.32-1.03.92-1.85,1.59-2.46,2-.59.42-.9.63-.92.61-.01-.02.28-.27.84-.72.57-.44,1.37-1.14,2.36-2.08,1.94-1.9,4.57-4.93,6.68-9.34,2.09-4.37,3.57-10.2,2.83-16.61-.76-6.36-3.79-13.15-9.06-18.38-2.05-2.05-4.34-3.78-6.71-5.11l-.23-.13.08-.26c1.85-6.14,1.54-12.41-.04-17.6-.71-2.63-1.84-4.97-2.96-7.09-1.22-2.07-2.47-3.93-3.82-5.44-2.66-3.07-5.29-5.07-7.19-6.25-.93-.63-1.73-.98-2.24-1.29-.51-.29-.78-.45-.77-.47Z"/>
      </g>
      <g>
        <path class="cls-5" d="m558.9,210.25s-18.85,5.73-25.46,15.34c-4.67,6.8-52.54,110.45-52.54,110.45l-72.66-21.85-25.98,34.31,80.84,44.81c14.99,8.31,33.22,8.23,48.13-.21h0c8.27-4.68,15.01-11.65,19.41-20.08l20.55-39.38,7.7-123.4Z"/>
        <path class="cls-5" d="m539.61,436l11.35-48.9-8.6-35.5c-5.53-18.28-10.28-48.06-4.26-72.05l20.09-68.98,22.09-10.16,50.56-8.7c1.94.65,52.86,15.03,52.86,15.03,7.05,1.64,9.88,2.76,9.88,2.76l5.84,37.76-17.56,62.23-7.65,62.01,16.8,64.49h-151.41Z"/>
        <path class="cls-2" d="m568.83,205.68l14.66-6.56,66.08.92,15.63,9.07s-54.59,60.25-68.29,62.24c-34.46,5.01-28.08-65.67-28.08-65.67Z"/>
        <path class="cls-5" d="m692.15,208.98s9.9,2.23,18.38,20.33c8.48,18.1,22.2,68.47,22.2,68.47l5.86-53.38,47.77,5.26-9.25,127.58s-16.91,24.52-45.19,22.25c-28.28-2.26-64.18-91.65-64.18-91.65l24.4-98.85Z"/>
        <path class="cls-8" d="m725.27,362.96s-.01-.11,0-.31c.01-.24.02-.54.04-.9.05-.85.12-2.01.21-3.47.18-3.01.54-7.37,1.04-12.75,1-10.76,2.82-25.57,5.05-41.89,2.23-16.33,4.13-31.12,5.24-41.86.56-5.37.99-9.71,1.25-12.72.14-1.46.25-2.61.33-3.46.04-.36.08-.66.1-.9.03-.2.05-.31.06-.3.01,0,.01.11,0,.31-.01.24-.02.54-.04.9-.05.85-.12,2.01-.21,3.47-.18,3.01-.54,7.37-1.04,12.75-1,10.76-2.82,25.57-5.05,41.9-2.23,16.32-4.13,31.11-5.24,41.85-.56,5.37-.99,9.71-1.25,12.72-.14,1.46-.25,2.61-.33,3.46-.04.36-.08.66-.1.9-.03.2-.05.31-.06.3Z"/>
        <path class="cls-8" d="m481.73,363.57s-.23-.32-.53-.95c-.31-.63-.69-1.57-1.11-2.75-.84-2.36-1.72-5.74-2.09-9.56-.37-3.82-.15-7.31.22-9.78.18-1.24.38-2.24.56-2.91.17-.68.29-1.05.34-1.04.11.02-.18,1.54-.43,4.01-.25,2.47-.38,5.9-.02,9.66.37,3.76,1.16,7.1,1.88,9.48.71,2.38,1.29,3.81,1.19,3.85Z"/>
        <path class="cls-8" d="m489.77,364.75s-.33-.31-.84-.95c-.51-.64-1.2-1.6-1.99-2.83-1.59-2.45-3.5-6.05-4.98-10.27-1.47-4.23-2.2-8.24-2.48-11.15-.14-1.46-.2-2.64-.19-3.46,0-.82.02-1.27.07-1.27.11,0,.19,1.8.59,4.67.39,2.87,1.19,6.81,2.64,10.98,1.46,4.17,3.28,7.75,4.75,10.25,1.47,2.5,2.52,3.96,2.43,4.03Z"/>
        <path class="cls-8" d="m546.32,250.77s-.06.36-.24,1.03c-.2.73-.47,1.7-.82,2.93-.74,2.6-1.77,6.26-3.05,10.76-2.48,9.09-5.94,21.71-7.59,36-.83,7.14-.99,14.01-.28,20.19.66,6.19,2.02,11.65,3.37,16.16,1.35,4.51,2.63,8.11,3.51,10.6.42,1.2.76,2.15,1.01,2.87.23.66.33,1.01.31,1.02-.02,0-.17-.33-.44-.97-.28-.7-.66-1.64-1.13-2.82-.95-2.46-2.3-6.04-3.71-10.56-1.41-4.51-2.83-10-3.52-16.23-.75-6.23-.6-13.16.23-20.33,1.66-14.36,5.2-26.99,7.8-36.06,1.32-4.53,2.46-8.18,3.25-10.7.39-1.21.7-2.17.94-2.89.22-.66.35-1,.37-1Z"/>
        <path class="cls-8" d="m679.91,334.83s-.07-.1-.17-.31c-.12-.25-.26-.56-.45-.95-.4-.88-.96-2.11-1.66-3.67-.71-1.6-1.61-3.54-2.57-5.84-.93-2.32-1.98-4.95-3.14-7.85-1.13-2.92-2.21-6.18-3.46-9.64-.54-1.76-1.11-3.58-1.69-5.45-.29-.94-.58-1.89-.87-2.85-.27-.97-.52-1.97-.78-2.97-2.15-7.99-3.98-16.98-4.52-26.54-.58-9.55.32-18.79,2.76-26.74,2.28-8.01,6.3-14.58,10.58-19.18,4.28-4.64,8.73-7.32,11.93-8.75,1.61-.7,2.89-1.17,3.79-1.4.41-.12.75-.21,1.01-.28.23-.06.35-.09.35-.07,0,.01-.11.06-.33.14-.26.09-.58.2-.99.35-.88.27-2.14.78-3.72,1.51-3.13,1.49-7.5,4.2-11.69,8.83-4.19,4.59-8.11,11.09-10.34,19.03-2.38,7.89-3.26,17.04-2.69,26.53.53,9.51,2.34,18.45,4.45,26.43.26,1,.51,1.99.76,2.96.29.96.58,1.91.86,2.85.57,1.87,1.12,3.69,1.65,5.45,1.22,3.47,2.28,6.72,3.37,9.65,1.12,2.91,2.14,5.55,3.04,7.87.93,2.3,1.8,4.26,2.47,5.88.66,1.58,1.18,2.82,1.55,3.72.16.4.29.72.39.97.08.22.12.34.11.34Z"/>
        <g class="cls-9">
          <path d="m661.7,277.04c-6.24,29.54-6.33,59.94,4.42,88.15.62,1.64,3.09,7.46,4.84,7.54,2.22.11,3.27-2.65,3.65-4.84.79-4.5,1.27-11.9,2.06-16.39.99-5.63,2.33-18.67,2.33-18.67,0,0-5.17-11.82-7.44-18.16-4.21-11.76-7.78-22.99-9.74-36.7"/>
        </g>
        <path class="cls-8" d="m656.6,391.5s-.15.28-.5.77c-.39.54-.9,1.25-1.53,2.14-.34.47-.72.98-1.12,1.54-.43.55-.94,1.1-1.47,1.72-1.08,1.21-2.23,2.68-3.74,4.06-.73.72-1.5,1.47-2.3,2.25-.81.77-1.73,1.48-2.64,2.27-1.8,1.61-3.93,3.06-6.12,4.65-4.52,2.99-9.76,5.87-15.58,8.18-5.85,2.24-11.66,3.66-17.01,4.52-2.69.32-5.24.69-7.65.72-1.2.04-2.36.14-3.48.12-1.12-.04-2.19-.07-3.21-.1-2.05,0-3.89-.3-5.5-.46-.81-.1-1.56-.16-2.25-.27-.68-.13-1.3-.26-1.87-.37-1.07-.22-1.92-.4-2.58-.54-.59-.13-.89-.21-.89-.23,0-.02.32.01.92.1.66.1,1.52.24,2.59.41.57.1,1.19.2,1.87.31.69.09,1.44.14,2.24.22,1.61.13,3.44.39,5.48.36,1.02.02,2.08.04,3.19.06,1.11.01,2.26-.11,3.46-.16,2.39-.05,4.92-.44,7.59-.78,5.3-.88,11.06-2.31,16.86-4.53,5.77-2.29,10.98-5.13,15.48-8.07,2.19-1.56,4.32-2.98,6.11-4.56.91-.77,1.84-1.46,2.65-2.22.8-.76,1.57-1.5,2.31-2.2,1.52-1.36,2.69-2.79,3.79-3.97.54-.6,1.06-1.15,1.5-1.68.42-.54.81-1.04,1.16-1.5.67-.85,1.22-1.54,1.63-2.06.38-.47.59-.71.61-.69Z"/>
        <path class="cls-8" d="m646.18,371.95s-.02.51-.17,1.4c-.14.9-.44,2.18-.89,3.74-.9,3.12-2.61,7.32-5.31,11.5-2.71,4.17-5.85,7.45-8.33,9.54-1.24,1.05-2.29,1.85-3.05,2.34-.75.51-1.18.77-1.21.73-.07-.1,1.57-1.25,3.94-3.42,2.37-2.16,5.41-5.44,8.08-9.55,2.66-4.12,4.41-8.23,5.42-11.28,1.01-3.05,1.4-5.02,1.52-5Z"/>
      </g>
      <g>
        <g>
          <path class="cls-5" d="m622.91,32.11c17.89.12,35.38,10.22,44.43,25.65,9.05,15.43,9.33,35.62.72,51.3-2.94,5.34-7.16,10.4-12.97,12.26,1.98-30.65-10.24-61.93-32.47-83.13"/>
          <path class="cls-5" d="m643.84,36.74c-2.66-5.52.19-12.43,4.92-16.32,4.74-3.89,10.91-5.46,16.87-6.88,5.96-1.42,12.13-2.9,16.98-6.66-.7,9.6-3.08,19.48-9.3,26.83-6.21,7.35-16.98,11.45-25.85,7.71"/>
          <path class="cls-5" d="m650,43.06c-4.08,1.72-8.94.64-12.59-1.86s-6.26-6.25-8.4-10.12c-2.63-4.76-4.7-9.89-5.4-15.29-.7-5.39.04-11.06,2.7-15.8,7.02,7.47,14.74,13.76,18.76,23.19,2.36,5.54,2.07,14.43-.46,19.9"/>
          <path class="cls-8" d="m669.87,74.14s.17.63.35,1.78c.1.58.2,1.29.26,2.11.07.83.19,1.77.21,2.82.12,2.09.08,4.59-.13,7.35-.25,2.76-.69,5.78-1.41,8.9-.75,3.11-1.72,6.01-2.74,8.58-1.06,2.56-2.15,4.81-3.2,6.62-.49.93-1.02,1.71-1.45,2.42-.43.71-.84,1.3-1.19,1.77-.68.95-1.08,1.46-1.11,1.43-.04-.03.28-.59.9-1.58.31-.49.69-1.1,1.09-1.82.4-.72.9-1.52,1.36-2.45.98-1.83,2.02-4.08,3.04-6.62.98-2.56,1.92-5.43,2.67-8.51.72-3.08,1.17-6.07,1.45-8.8.24-2.73.33-5.21.27-7.28.01-1.04-.07-1.98-.11-2.8-.03-.83-.09-1.53-.15-2.11-.1-1.16-.14-1.81-.09-1.81Z"/>
          <path class="cls-8" d="m665.87,39.77s-.47.43-1.42,1.13c-1.02.56-2.55,1.38-4.63,1.79-4.12.94-10.08.74-16.37-.93l-.19-.05-.04-.19c-.09-.38-.18-.8-.27-1.21-.67-3.33-.83-6.61-.42-9.53.37-2.93,1.39-5.49,2.69-7.31,1.26-1.88,2.8-2.93,3.8-3.63,1.1-.59,1.71-.9,1.73-.86.02.04-.55.42-1.58,1.07-.94.76-2.39,1.83-3.56,3.68-1.21,1.8-2.14,4.27-2.47,7.13-.37,2.85-.19,6.06.47,9.32.09.41.18.81.26,1.19l-.23-.24c6.17,1.65,12.04,1.93,16.09,1.12,2.05-.34,3.56-1.08,4.6-1.56.97-.62,1.52-.95,1.55-.91Z"/>
          <path class="cls-8" d="m671.12,23.16c.02.12-1.88.39-4.81,1.26-1.47.43-3.18,1.05-5.04,1.87-1.84.84-3.81,1.88-5.76,3.15-1.95,1.29-3.68,2.68-5.19,4.03-1.48,1.37-2.74,2.69-3.72,3.87-1.97,2.35-2.97,3.98-3.07,3.91-.04-.02.18-.45.62-1.19.43-.75,1.14-1.79,2.09-3.02.94-1.23,2.19-2.61,3.67-4.03,1.5-1.4,3.26-2.83,5.24-4.14,1.99-1.29,4-2.33,5.88-3.15,1.89-.79,3.65-1.38,5.16-1.76,1.5-.38,2.74-.62,3.6-.71.86-.1,1.34-.14,1.34-.09Z"/>
          <path class="cls-8" d="m649.72,42.91s0,.14-.05.39c-.04.25-.16.61-.34,1.06-.37.89-1.16,2.12-2.54,3.21-1.37,1.05-3.4,1.98-5.76,1.86-2.37-.08-4.82-1.51-6.34-3.74-1.52-2.22-1.97-5.03-1.2-7.27.74-2.25,2.34-3.8,3.81-4.7,1.51-.89,2.94-1.18,3.9-1.21.49,0,.86.01,1.11.06.25.04.38.07.38.09,0,.07-.53,0-1.47.1-.93.1-2.27.45-3.67,1.35-1.37.9-2.83,2.41-3.48,4.49-.68,2.06-.26,4.63,1.16,6.7,1.42,2.07,3.66,3.39,5.83,3.5,2.18.15,4.1-.67,5.44-1.62,1.34-.99,2.15-2.11,2.58-2.94.44-.83.56-1.35.63-1.33Z"/>
          <path class="cls-8" d="m634.18,43.23c-.06.06-.44-.7.16-1.7.29-.47.82-.95,1.52-1.19.69-.25,1.49-.3,2.29-.24,3.2.23,5.53,1.47,5.44,1.62-.07.19-2.43-.74-5.48-.96-1.51-.15-2.82.24-3.38,1.03-.6.75-.45,1.42-.55,1.43Z"/>
          <path class="cls-8" d="m626.31,0c.13.06-1.42,1.87-1.96,5.48-.3,1.79-.33,3.95-.3,6.36.03,2.41.14,5.06.68,7.76,1.22,5.38,3.42,10.02,5.47,12.98,1.04,1.49,1.96,2.65,2.61,3.43.65.78,1.06,1.17,1.02,1.21-.08.1-1.82-1.41-4.02-4.37-2.2-2.97-4.5-7.61-5.74-13.12-.56-2.77-.65-5.47-.64-7.89,0-2.42.09-4.63.45-6.45.34-1.82.94-3.23,1.46-4.12.53-.89.93-1.3.96-1.28Z"/>
          <path class="cls-8" d="m632.95,15.21c.07-.05.79.76,1.8,2.19,1.01,1.43,2.29,3.5,3.41,5.94,1.12,2.44,1.85,4.76,2.25,6.47.4,1.71.52,2.79.44,2.8-.21.05-1.08-4.19-3.3-8.99-2.2-4.81-4.78-8.28-4.6-8.41Z"/>
          <path class="cls-8" d="m630.78,23.19c.13-.11,2.29,2.07,5.12,4.61,2.82,2.55,5.08,4.66,4.95,4.81-.11.13-2.56-1.76-5.4-4.32-2.85-2.55-4.82-4.98-4.67-5.1Z"/>
          <path class="cls-3" d="m664.32,53.26s-.06.07-.18.18c-.18.15-.37.31-.56.48-.49.42-1.23.98-2.19,1.63-1.9,1.3-4.72,2.83-8.07,3.94-3.35,1.09-6.53,1.53-8.83,1.61-1.15.04-2.08.04-2.73-.01-.26-.02-.5-.04-.74-.05-.17-.01-.26-.03-.26-.04,0,0,.09-.01.26-.02.24,0,.48,0,.74,0,.64.02,1.57,0,2.71-.07,2.28-.13,5.44-.59,8.76-1.68,3.32-1.1,6.13-2.59,8.05-3.84.96-.62,1.72-1.16,2.23-1.55.21-.15.4-.3.59-.44.14-.1.21-.15.22-.14Z"/>
          <path class="cls-3" d="m671.88,68.78s-.06.07-.19.18c-.18.15-.37.31-.57.47-.49.41-1.24.97-2.2,1.62-1.91,1.3-4.71,2.86-8.02,4.06-3.32,1.19-6.48,1.78-8.77,1.99-1.15.11-2.08.16-2.72.16-.26,0-.5,0-.74,0-.17,0-.26,0-.26-.02,0,0,.09-.02.26-.03.24-.02.48-.03.74-.05.64-.03,1.57-.11,2.71-.24,2.28-.27,5.4-.87,8.7-2.06,3.29-1.19,6.09-2.72,8.01-3.97.96-.62,1.73-1.15,2.24-1.54.21-.15.41-.3.6-.43.14-.1.21-.14.22-.14Z"/>
          <path class="cls-3" d="m669.78,91.4s-.18.16-.54.4c-.36.25-.9.57-1.58.95-1.36.75-3.34,1.62-5.64,2.22-2.3.6-4.45.81-6.01.82-.78,0-1.41-.01-1.84-.05-.43-.04-.67-.06-.67-.08s.24-.02.67-.02c.43,0,1.06,0,1.83-.03,1.54-.06,3.67-.3,5.94-.89,2.28-.6,4.25-1.43,5.62-2.13.69-.35,1.24-.65,1.61-.87.38-.22.59-.33.6-.31Z"/>
          <path class="cls-3" d="m674.13,87.94c.01.07-.76.28-1.73.47-.97.19-1.77.28-1.78.21s.76-.28,1.73-.47c.97-.19,1.77-.28,1.78-.21Z"/>
          <path class="cls-3" d="m661.41,114.55c0,.07-1.3.27-2.92.15-1.62-.12-2.89-.51-2.87-.57.02-.08,1.29.19,2.89.31,1.6.12,2.9.04,2.9.12Z"/>
          <path class="cls-3" d="m637.08,47.52c.04.06-.73.56-1.71,1.1-.98.54-1.8.93-1.84.86s.73-.55,1.71-1.1c.98-.54,1.8-.93,1.84-.86Z"/>
          <path class="cls-3" d="m630.72,34.06c.03.08-1.85.64-3.78,2.03-1.95,1.37-3.09,2.96-3.16,2.9-.03-.02.23-.44.74-1.04.51-.6,1.29-1.38,2.27-2.08.98-.7,1.97-1.18,2.71-1.46.74-.28,1.22-.38,1.22-.35Z"/>
          <path class="cls-3" d="m642.26,48.97c-.09-.01.36-1.75.07-3.89-.26-2.14-1.13-3.71-1.05-3.74.03-.02.28.35.57,1.01.29.65.6,1.61.75,2.7.14,1.09.08,2.09-.04,2.8-.12.71-.27,1.13-.3,1.12Z"/>
          <path class="cls-3" d="m681.92,7.16s-.45.58-1.4,1.5c-.95.92-2.44,2.14-4.43,3.41-2,1.27-4.51,2.55-7.37,3.81-2.86,1.27-6.05,2.51-9.29,4.07-3.23,1.56-6.19,3.34-8.5,5.42-2.31,2.07-3.97,4.39-4.99,6.5-1.02,2.12-1.41,4.01-1.52,5.32-.11,1.31-.02,2.04-.06,2.04,0,0-.02-.18-.04-.53-.03-.35-.03-.86,0-1.52.08-1.32.45-3.24,1.46-5.39,1.01-2.15,2.67-4.49,5-6.6,2.33-2.11,5.3-3.91,8.55-5.48,3.25-1.56,6.46-2.8,9.31-4.05,2.86-1.24,5.37-2.5,7.37-3.75,2-1.24,3.49-2.44,4.46-3.33.48-.45.85-.8,1.09-1.05.24-.25.38-.37.38-.37Z"/>
          <path class="cls-3" d="m678.46,22.37s-.05.1-.17.29c-.16.25-.34.51-.53.8-.46.7-1.18,1.68-2.12,2.85-1.87,2.34-4.73,5.38-8.35,8.19-3.63,2.81-7.28,4.83-10.01,6.06-1.37.62-2.49,1.07-3.28,1.35-.33.12-.63.22-.91.32-.21.07-.32.1-.32.09,0,0,.1-.06.31-.14.27-.11.57-.23.89-.36.78-.3,1.89-.78,3.24-1.42,2.7-1.27,6.32-3.31,9.93-6.1,3.6-2.8,6.47-5.8,8.37-8.1.95-1.15,1.69-2.11,2.18-2.79.21-.28.4-.54.57-.77.13-.18.21-.27.22-.26Z"/>
          <path class="cls-3" d="m624.95,4.36s1.58.6,3.88,2.06c2.3,1.44,5.26,3.84,7.86,7.11,2.58,3.27,4.24,6.7,5.12,9.27.89,2.58,1.11,4.25,1.11,4.25,0,0-.04-.1-.1-.29-.07-.26-.15-.54-.23-.84-.18-.74-.5-1.78-.97-3.05-.92-2.54-2.59-5.93-5.15-9.17-2.57-3.23-5.49-5.64-7.75-7.11-1.13-.74-2.08-1.3-2.75-1.64-.28-.15-.53-.28-.77-.41-.17-.1-.26-.15-.26-.16Z"/>
        </g>
        <g>
          <g>
            <path class="cls-8" d="m560.67,52.56c.5,6.79-3.99,12.86-8.51,17.96-4.52,5.1-9.55,10.41-10.53,17.15-1.73,11.95,9.97,23.04,7.55,34.87-1.29,6.34-6.48,11.43-7.41,17.84-.89,6.19,2.42,12.26,6.54,16.97,4.11,4.72,8.88,4.03,12.52,9.12,3.83,5.36,10.01,10.87,15.79,14.03,13.11,7.18,28.84-3.21,35.17-5.07"/>
            <path class="cls-8" d="m659.81,80.41c6.04-2.63,6.52-24.29-8.64-26.79-6.08-1-11.15-3.97-16.26-7.41-4.53-3.05-5.87-10.78-9.7-14.67-9.4-9.53-24.08-13.48-37-9.96-12.92,3.52-23.55,14.38-26.81,27.37-2.2,8.77-.7,19.15,6.22,24.98,8.03,6.77,19.93,5.26,30.22,3.16,10.29-2.11,21.93-4.18,30.52,1.86,5.18,3.64,8.15,9.57,11.31,15.05,3.17,5.48,7.14,11.08,13.13,13.14,0,0,4.56,10.71.84,18.17-3.72,7.46,4.38-5.26,4.38-5.26,0,0,14.76-26.25,1.81-39.65"/>
            <g>
              <g>
                <path class="cls-2" d="m583.02,232.4c-.08-14.14,0-53.84,0-53.77,0,0-22.46-3.78-27.05-33.1-2.28-14.58-1.5-38.48-.22-58.02,1.15-17.58,12.85-39.13,30.36-37.24l54.68,13.95c5.32.57,9.32,5.13,9.2,10.48h0l-3.33,135.81-63.65,21.9Z"/>
                <g>
                  <path class="cls-8" d="m565.05,104.26c-.07,1.99,1.54,3.69,3.62,3.8,2.07.12,3.81-1.4,3.88-3.38.07-1.98-1.54-3.69-3.61-3.8-2.07-.12-3.81,1.4-3.89,3.38Z"/>
                  <path class="cls-8" d="m560.9,99.95c.46.49,3.32-1.61,7.36-1.59,4.04-.04,7.01,2.05,7.45,1.56.22-.22-.26-1.1-1.55-2.05-1.27-.94-3.44-1.86-5.96-1.85-2.52,0-4.64.93-5.86,1.88-1.25.95-1.67,1.84-1.44,2.06Z"/>
                </g>
                <path class="cls-8" d="m600.67,106.4c.47.49,3.32-1.61,7.36-1.59,4.04-.04,7.01,2.05,7.45,1.55.22-.22-.25-1.1-1.55-2.05-1.27-.94-3.44-1.86-5.96-1.85-2.52,0-4.64.93-5.86,1.88-1.24.95-1.67,1.84-1.44,2.06Z"/>
                <path class="cls-8" d="m585.92,130.77c.02-.23-2.49-.67-6.57-1.2-1.03-.11-2.01-.32-2.18-1.02-.24-.75.19-1.86.7-3.06.98-2.5,2-5.12,3.07-7.86,4.27-11.19,7.36-20.39,6.91-20.56-.45-.17-4.28,8.77-8.54,19.96-1.03,2.76-2.01,5.39-2.94,7.91-.39,1.17-1.07,2.5-.54,4.05.28.77,1.03,1.33,1.7,1.51.66.2,1.24.22,1.75.25,4.1.23,6.64.25,6.66.02Z"/>
                <path class="cls-1" d="m583.02,178.63s19.72,1.32,39.28-10.39c-.33.07-10.81,20.38-38.9,17.31l-.38-6.92Z"/>
                <path class="cls-1" d="m587.08,142.44c-.48-2.49,2.45-3.3,4.6-4.63,2.15-1.34,3.39-3.12,5.41-1.58,1.15.88,1.98,2.14,2.49,3.49.35.91.57,1.9.4,2.86-.2,1.17-.94,2.18-1.8,2.99-1.22,1.15-2.74,2.02-4.39,2.3-1.65.28-3.44-.08-4.76-1.12-1.32-1.04-2.09-2.78-1.81-4.44"/>
                <path class="cls-8" d="m597.82,133.59c-.66-.04-.68,4.35-4.44,7.46-3.76,3.12-8.44,2.61-8.47,3.23-.06.28,1.04.86,3.02.91,1.94.07,4.77-.55,7.07-2.45,2.3-1.91,3.29-4.45,3.44-6.26.17-1.84-.32-2.92-.62-2.9Z"/>
              </g>
              <path class="cls-8" d="m600.06,97.36c.4,1.1,4.44.59,9.18,1.17,4.76.49,8.58,1.89,9.21.9.28-.47-.38-1.51-1.93-2.58-1.53-1.07-3.98-2.08-6.83-2.41-2.85-.32-5.46.13-7.19.83-1.74.7-2.62,1.56-2.45,2.08Z"/>
              <path class="cls-8" d="m561.47,85.96c.71.92,3.5-.03,6.85-.06,3.35-.15,6.19.63,6.84-.33.29-.47-.16-1.39-1.4-2.26-1.22-.87-3.26-1.58-5.57-1.52-2.3.07-4.3.9-5.47,1.84-1.19.94-1.58,1.89-1.26,2.34Z"/>
            </g>
            <path class="cls-8" d="m653.2,162.28c-8.06,1.63-8.78-2.48-14.8-8.08-6.02-5.6-9.13-14.18-8.1-22.33.91-7.2,4.79-14.52,2.3-21.34-3.3-9.01-15.93-11.78-19.28-20.77-1.95-5.22-.2-11.34-2.41-16.46-2.08-4.81-7.14-7.59-12.07-9.37-4.93-1.78-10.22-3.01-14.36-6.23-4.14-3.22-6.72-9.29-4.05-13.8,21.87,2.62,43.42,7.86,64.05,15.56,4.78,1.79,9.81,3.93,12.64,8.19,2.99,4.5,2.85,10.31,2.6,15.71-1.23,26.32-2.46,52.64-3.68,78.96"/>
          </g>
          <path class="cls-7" d="m671.88,152.45s.13-.11.32-.36c.18-.26.51-.62.81-1.17.66-1.06,1.46-2.77,1.93-5.13.47-2.34.51-5.37-.47-8.66-.92-3.28-3.2-6.8-6.82-9.18-3.48-2.45-8.01-4.16-10.88-8.06-1.44-1.91-2.04-4.38-1.59-6.88.39-2.52,1.54-4.98,2.55-7.61,2.24-5.25,2.26-11.81-.38-17.5-1.33-2.83-3.3-5.46-5.95-7.39-2.63-1.99-5.83-3.01-8.99-3.73-3.17-.72-6.34-1.14-9.28-2.03-2.93-.88-5.74-2.19-7.77-4.25-2.09-2.03-2.97-4.85-3.37-7.69-.4-2.84-.61-5.78-1.38-8.52-1.43-5.5-4.23-10.37-7.91-13.87-3.68-3.52-8.19-5.54-12.45-6.18-4.27-.67-8.3.13-11.33,1.72-3.06,1.56-5.19,3.72-6.55,5.67-1.36,1.98-2,3.76-2.29,4.97-.3,1.22-.28,1.89-.28,1.89.19.08.23-2.75,2.98-6.57,1.39-1.85,3.5-3.89,6.47-5.32,2.94-1.46,6.78-2.15,10.87-1.46,4.07.66,8.37,2.65,11.85,6.05,3.49,3.38,6.15,8.08,7.5,13.4.73,2.66.91,5.46,1.31,8.41.38,2.9,1.36,6.12,3.69,8.39,2.26,2.29,5.26,3.67,8.3,4.59,3.08.93,6.26,1.35,9.36,2.06,3.09.7,6.1,1.68,8.52,3.5,2.45,1.78,4.3,4.23,5.56,6.89,2.49,5.37,2.53,11.5.41,16.55-.97,2.58-2.15,5.11-2.56,7.86-.49,2.73.25,5.63,1.85,7.68,3.2,4.21,7.86,5.84,11.23,8.19,3.51,2.24,5.68,5.49,6.65,8.64,1.01,3.13,1.05,6.07.66,8.35-.8,4.64-2.76,6.67-2.57,6.75Z"/>
        </g>
        <g>
          <g>
            <path class="cls-8" d="m633.74,123.32c-6.64,15.28-7.87,32.84-3.42,48.89,1.33,4.8,3.16,9.77,2.03,14.61-1.23,5.25-5.61,9.04-8.81,13.37-5.51,7.46-7.65,17.31-5.75,26.38,1.9,9.07,7.83,17.23,15.87,21.85.85-4.82,5.33-8.11,9.75-10.2,4.42-2.1,9.31-3.65,12.68-7.2,3.37-3.55,4.33-10.05.41-12.98,11.28-2.95,17.68-16.35,15.3-27.77-2.38-11.42-11.66-20.44-22.22-25.39"/>
            <path class="cls-8" d="m645.77,237.15c-2.02,1.11-3.98,2.1-4.22,4.38-.29,2.68,2.28,7.4,3.21,9.93,1.81,4.96.45,10.93-3.34,14.62-3.79,3.69-9.79,4.89-14.7,2.95,3.61.28,6.67-3.25,7-6.85.32-3.61-1.43-7.09-3.58-10-2.15-2.91-4.76-5.5-6.58-8.63-3.72-6.37-9.23-23.69-4.99-33.4"/>
          </g>
          <path class="cls-7" d="m656.03,218.49s.23-.22.69-.58c.47-.36,1.15-.91,2.01-1.63,1.71-1.45,4.13-3.65,6.59-6.81,2.44-3.15,4.94-7.33,6.24-12.45,1.28-5.08,1.38-11.15-.83-16.83-1.1-2.83-2.73-5.34-4.64-7.49-1.89-2.17-3.94-4.06-5.87-5.9-1.93-1.84-3.75-3.62-5.26-5.47-1.51-1.86-2.66-3.79-3.45-5.67-1.64-3.75-1.71-7.22-1.13-9.42.29-1.1.66-1.91.96-2.43.31-.51.48-.77.5-.76.09.04-.69,1.07-1.2,3.25-.48,2.16-.35,5.53,1.31,9.17.8,1.82,1.94,3.71,3.44,5.51,1.5,1.81,3.32,3.56,5.26,5.38,1.94,1.82,4.01,3.71,5.94,5.92,1.94,2.18,3.64,4.77,4.77,7.68,2.26,5.84,2.14,12.05.8,17.23-1.37,5.23-3.95,9.44-6.47,12.59-2.53,3.17-5.03,5.33-6.8,6.72-.89.7-1.6,1.21-2.1,1.54-.49.33-.76.49-.77.48Z"/>
        </g>
      </g>
    </g>
    <g>
      <path class="cls-6" d="m19.55,93.21v23.43h-3.23v-20.67H6.63v20.67h-3.23v-23.43h16.15Z"/>
      <path class="cls-6" d="m38.78,100.82c1.39,1.68,2.09,3.96,2.09,6.83,0,1.86-.32,3.5-.95,4.91-.63,1.42-1.55,2.52-2.75,3.3-1.2.78-2.63,1.17-4.28,1.17-2.52,0-4.48-.84-5.88-2.52-1.41-1.68-2.11-3.96-2.11-6.83,0-1.86.32-3.5.95-4.91.63-1.42,1.55-2.52,2.75-3.3,1.2-.78,2.64-1.17,4.32-1.17,2.52,0,4.47.84,5.87,2.52Zm-10.52,6.87c0,4.56,1.54,6.83,4.62,6.83s4.62-2.29,4.62-6.87-1.53-6.83-4.59-6.83-4.66,2.29-4.66,6.87Z"/>
      <path class="cls-6" d="m60.08,114.12v7.62h-2.55l-.51-5.1h-11.49l-.51,5.1h-2.55v-7.62h1.26c.54-.36.97-.78,1.29-1.24.32-.46.61-1.28.87-2.43.26-1.16.47-2.84.63-5.07l.48-6.66h11.22v15.4h1.87Zm-5-12.92h-5.27l-.27,3.77c-.16,2.11-.34,3.73-.54,4.86-.2,1.13-.49,2.01-.87,2.62-.37.61-.91,1.17-1.62,1.67h8.57v-12.92Z"/>
      <path class="cls-6" d="m75.14,116.63v-15.37h-7.34v15.37h-3.13v-17.92h13.6v17.92h-3.13Z"/>
      <path class="cls-6" d="m98.67,116.63h-3.09v-8.09c0-1.36.04-2.65.14-3.88.09-1.22.17-2.03.24-2.41l-7.51,14.38h-3.71v-17.92h3.09v8.09c0,1.2-.05,2.44-.14,3.72-.09,1.28-.16,2.1-.2,2.46l7.41-14.28h3.77v17.92Z"/>
      <path class="cls-6" d="m125.73,98.72v17.92h-20.6v-17.92h3.06v15.4h5.75v-15.4h2.99v15.4h5.75v-15.4h3.06Z"/>
      <path class="cls-6" d="m146.13,116.63h-3.09v-8.09c0-1.36.04-2.65.14-3.88.09-1.22.17-2.03.24-2.41l-7.51,14.38h-3.71v-17.92h3.09v8.09c0,1.2-.05,2.44-.14,3.72-.09,1.28-.16,2.1-.2,2.46l7.41-14.28h3.77v17.92Z"/>
      <path class="cls-6" d="m164.69,98.72l-.37,2.55h-5.75v15.37h-3.13v-15.37h-5.92v-2.55h15.16Z"/>
      <path class="cls-6" d="m180.54,108.75h-11.42c.14,1.97.63,3.42,1.5,4.35.86.93,1.97,1.39,3.33,1.39.86,0,1.65-.12,2.38-.37.73-.25,1.48-.65,2.28-1.19l1.36,1.87c-1.9,1.5-3.99,2.24-6.26,2.24-2.49,0-4.44-.82-5.83-2.45s-2.09-3.88-2.09-6.73c0-1.86.3-3.51.9-4.95.6-1.44,1.46-2.57,2.58-3.38s2.44-1.22,3.96-1.22c2.38,0,4.2.78,5.47,2.35,1.27,1.56,1.9,3.73,1.9,6.49,0,.52-.02,1.05-.07,1.6Zm-3.03-2.52c0-1.77-.35-3.12-1.05-4.05-.7-.93-1.76-1.39-3.16-1.39-2.56,0-3.96,1.88-4.18,5.64h8.4v-.2Z"/>
      <path class="cls-6" d="m195.06,98.77c.88.31,1.73.8,2.55,1.48l-1.5,1.97c-.63-.45-1.25-.79-1.85-1-.6-.22-1.26-.32-1.99-.32-1.45,0-2.58.58-3.38,1.73-.81,1.16-1.21,2.87-1.21,5.13s.4,3.94,1.19,5.02c.79,1.08,1.93,1.61,3.4,1.61.7,0,1.35-.11,1.94-.32.59-.22,1.25-.56,1.97-1.04l1.43,2.04c-1.63,1.31-3.46,1.97-5.47,1.97-2.43,0-4.33-.82-5.73-2.45s-2.09-3.89-2.09-6.77c0-1.9.32-3.57.95-5,.63-1.43,1.54-2.54,2.7-3.33,1.17-.79,2.56-1.19,4.17-1.19,1.07,0,2.04.15,2.92.46Z"/>
      <path class="cls-6" d="m213.18,106.06c1.2,1.04,1.8,2.53,1.8,4.45s-.67,3.54-2.02,4.57c-1.35,1.03-3.02,1.55-5.02,1.55h-6.09v-17.92h3.13v5.78h2.38c2.67,0,4.61.52,5.81,1.56Zm-2.57,7.28c.69-.57,1.04-1.51,1.04-2.82,0-1.25-.32-2.16-.97-2.75-.65-.59-1.76-.88-3.35-.88h-2.35v7.31h2.69c1.27,0,2.25-.28,2.94-.85Z"/>
      <path class="cls-6" d="m238.98,116.63v-7.89h-7.45v7.89h-3.13v-17.92h3.13v7.51h7.45v-7.51h3.13v17.92h-3.13Z"/>
      <path class="cls-6" d="m261.02,114.07c.25.35.62.62,1.12.8l-.71,2.18c-.93-.11-1.68-.37-2.24-.78-.57-.41-.99-1.04-1.26-1.9-1.2,1.79-2.98,2.69-5.34,2.69-1.77,0-3.16-.5-4.18-1.5-1.02-1-1.53-2.3-1.53-3.91,0-1.9.69-3.37,2.06-4.39,1.37-1.02,3.31-1.53,5.83-1.53h2.75v-1.33c0-1.27-.31-2.18-.92-2.72-.61-.54-1.55-.82-2.82-.82s-2.92.32-4.83.95l-.78-2.28c2.22-.82,4.28-1.22,6.19-1.22,2.11,0,3.68.52,4.73,1.55,1.04,1.03,1.56,2.5,1.56,4.4v8.19c0,.73.12,1.26.37,1.62Zm-3.5-2.16v-4.11h-2.35c-3.31,0-4.96,1.22-4.96,3.67,0,1.07.26,1.87.78,2.41.52.54,1.29.82,2.31.82,1.79,0,3.2-.93,4.22-2.79Z"/>
      <path class="cls-6" d="m286.65,116.63v-7.89h-7.45v7.89h-3.13v-17.92h3.13v7.51h7.45v-7.51h3.13v17.92h-3.13Z"/>
      <path class="cls-6" d="m308.68,114.07c.25.35.62.62,1.12.8l-.71,2.18c-.93-.11-1.68-.37-2.24-.78-.57-.41-.99-1.04-1.26-1.9-1.2,1.79-2.98,2.69-5.34,2.69-1.77,0-3.16-.5-4.18-1.5-1.02-1-1.53-2.3-1.53-3.91,0-1.9.69-3.37,2.06-4.39,1.37-1.02,3.31-1.53,5.83-1.53h2.75v-1.33c0-1.27-.31-2.18-.92-2.72-.61-.54-1.55-.82-2.82-.82s-2.92.32-4.83.95l-.78-2.28c2.22-.82,4.28-1.22,6.19-1.22,2.11,0,3.68.52,4.73,1.55,1.04,1.03,1.56,2.5,1.56,4.4v8.19c0,.73.12,1.26.37,1.62Zm-3.5-2.16v-4.11h-2.35c-3.31,0-4.96,1.22-4.96,3.67,0,1.07.26,1.87.78,2.41.52.54,1.29.82,2.31.82,1.79,0,3.2-.93,4.22-2.79Z"/>
      <path class="cls-6" d="m335.34,98.72v17.92h-20.6v-17.92h3.06v15.4h5.75v-15.4h2.99v15.4h5.75v-15.4h3.06Z"/>
      <path class="cls-6" d="m348.97,116.74c-.7,2.08-1.68,3.73-2.94,4.95-1.26,1.21-3.05,1.94-5.39,2.19l-.34-2.45c1.18-.2,2.12-.5,2.82-.88.7-.39,1.26-.88,1.68-1.48.42-.6.81-1.41,1.17-2.43h-1.05l-6.02-17.92h3.33l4.79,15.64,4.69-15.64h3.23l-5.98,18.02Z"/>
      <path class="cls-6" d="m16.49,139.76c1.06,1.63,1.6,3.93,1.6,6.9,0,2.81-.61,5.08-1.84,6.8s-2.96,2.58-5.2,2.58c-1.99,0-3.56-.68-4.69-2.04v8.5l-3.13.37v-25.16h2.69l.24,2.41c.66-.91,1.45-1.6,2.38-2.09.93-.49,1.9-.73,2.92-.73,2.29,0,3.97.82,5.03,2.45Zm-1.77,6.9c0-4.58-1.35-6.87-4.05-6.87-.88,0-1.69.26-2.41.78-.73.52-1.36,1.19-1.9,2.01v8.74c.45.7,1.02,1.24,1.7,1.61.68.37,1.43.56,2.24.56,2.95,0,4.42-2.28,4.42-6.83Z"/>
      <path class="cls-6" d="m35.53,153.07c.25.35.62.62,1.12.8l-.71,2.18c-.93-.11-1.68-.37-2.24-.78-.57-.41-.99-1.04-1.26-1.9-1.2,1.79-2.98,2.69-5.34,2.69-1.77,0-3.16-.5-4.18-1.5-1.02-1-1.53-2.3-1.53-3.91,0-1.9.69-3.37,2.06-4.39,1.37-1.02,3.31-1.53,5.83-1.53h2.75v-1.33c0-1.27-.31-2.18-.92-2.72-.61-.54-1.55-.82-2.82-.82s-2.92.32-4.83.95l-.78-2.28c2.22-.82,4.28-1.22,6.19-1.22,2.11,0,3.68.52,4.73,1.55,1.04,1.03,1.56,2.5,1.56,4.4v8.19c0,.73.12,1.26.37,1.62Zm-3.5-2.16v-4.11h-2.35c-3.31,0-4.96,1.22-4.96,3.67,0,1.07.26,1.87.78,2.41.52.54,1.29.82,2.31.82,1.79,0,3.2-.93,4.22-2.79Z"/>
      <path class="cls-6" d="m51.03,137.77c.88.31,1.73.8,2.55,1.48l-1.5,1.97c-.63-.45-1.25-.79-1.85-1-.6-.22-1.26-.32-1.99-.32-1.45,0-2.58.58-3.38,1.73-.81,1.16-1.21,2.87-1.21,5.13s.4,3.94,1.19,5.02c.79,1.08,1.93,1.61,3.4,1.61.7,0,1.35-.11,1.94-.32.59-.22,1.25-.56,1.97-1.04l1.43,2.04c-1.63,1.31-3.46,1.97-5.47,1.97-2.43,0-4.33-.82-5.73-2.45s-2.09-3.89-2.09-6.77c0-1.9.32-3.57.95-5,.63-1.43,1.54-2.54,2.7-3.33,1.17-.79,2.56-1.19,4.17-1.19,1.07,0,2.04.15,2.92.46Z"/>
      <path class="cls-6" d="m66.61,137.77c.88.31,1.73.8,2.55,1.48l-1.5,1.97c-.63-.45-1.25-.79-1.85-1-.6-.22-1.26-.32-1.99-.32-1.45,0-2.58.58-3.38,1.73-.81,1.16-1.21,2.87-1.21,5.13s.4,3.94,1.19,5.02c.79,1.08,1.93,1.61,3.4,1.61.7,0,1.35-.11,1.94-.32.59-.22,1.25-.56,1.97-1.04l1.43,2.04c-1.63,1.31-3.46,1.97-5.47,1.97-2.43,0-4.33-.82-5.73-2.45s-2.09-3.89-2.09-6.77c0-1.9.32-3.57.95-5,.63-1.43,1.54-2.54,2.7-3.33,1.17-.79,2.56-1.19,4.17-1.19,1.07,0,2.04.15,2.92.46Z"/>
      <path class="cls-6" d="m84.39,145.06c1.2,1.04,1.8,2.53,1.8,4.45s-.67,3.54-2.02,4.57c-1.35,1.03-3.02,1.55-5.02,1.55h-5.75v-17.92h3.13v5.78h2.04c2.67,0,4.61.52,5.81,1.56Zm-2.57,7.28c.69-.57,1.04-1.51,1.04-2.82,0-1.25-.32-2.16-.97-2.75-.65-.59-1.76-.88-3.35-.88h-2.01v7.31h2.35c1.27,0,2.25-.28,2.94-.85Zm6.95-14.62h3.13v17.92h-3.13v-17.92Z"/>
      <path class="cls-6" d="m111.49,137.72v17.92h-3.13v-15.37h-5.54l-.51,5.98c-.2,2.43-.46,4.24-.76,5.44-.31,1.2-.78,2.12-1.43,2.77s-1.63,1.17-2.94,1.58l-.78-2.48c.77-.27,1.31-.62,1.63-1.05.32-.43.56-1.09.71-1.97.16-.88.33-2.43.51-4.62l.71-8.19h11.53Z"/>
      <path class="cls-6" d="m131.38,137.72l-5.44,8.3,6.09,9.62h-3.71l-4.96-8.26h-2.28v8.26h-3.13v-17.92h3.13v7.21h2.35l4.52-7.21h3.43Z"/>
      <path class="cls-6" d="m142.77,155.74c-.7,2.08-1.68,3.73-2.94,4.95-1.26,1.21-3.05,1.94-5.39,2.19l-.34-2.45c1.18-.2,2.12-.5,2.82-.88.7-.39,1.26-.88,1.68-1.48.42-.6.81-1.41,1.17-2.43h-1.05l-6.02-17.92h3.33l4.79,15.64,4.69-15.64h3.23l-5.98,18.02Z"/>
      <path class="cls-6" d="m175.27,155.63h-3.09v-8.09c0-1.36.04-2.65.14-3.88.09-1.22.17-2.03.24-2.41l-7.51,14.38h-3.71v-17.92h3.09v8.09c0,1.2-.05,2.44-.14,3.72-.09,1.28-.16,2.1-.2,2.46l7.41-14.28h3.77v17.92Z"/>
      <path class="cls-6" d="m201.21,155.63v-15.37h-7.34v15.37h-3.13v-17.92h13.6v17.92h-3.13Z"/>
      <path class="cls-6" d="m223.4,139.82c1.39,1.68,2.09,3.96,2.09,6.83,0,1.86-.32,3.5-.95,4.91-.63,1.42-1.55,2.52-2.75,3.3-1.2.78-2.63,1.17-4.28,1.17-2.52,0-4.48-.84-5.88-2.52-1.41-1.68-2.11-3.96-2.11-6.83,0-1.86.32-3.5.95-4.91.63-1.42,1.55-2.52,2.75-3.3,1.2-.78,2.64-1.17,4.32-1.17,2.52,0,4.47.84,5.87,2.52Zm-10.52,6.87c0,4.56,1.54,6.83,4.62,6.83s4.62-2.29,4.62-6.87-1.53-6.83-4.59-6.83-4.66,2.29-4.66,6.87Z"/>
      <path class="cls-6" d="m243.44,137.72v17.92h-3.13v-15.37h-5.54l-.51,5.98c-.2,2.43-.46,4.24-.76,5.44-.31,1.2-.78,2.12-1.43,2.77s-1.63,1.17-2.94,1.58l-.78-2.48c.77-.27,1.31-.62,1.63-1.05.32-.43.56-1.09.71-1.97.16-.88.33-2.43.51-4.62l.71-8.19h11.53Z"/>
      <path class="cls-6" d="m257.07,155.74c-.7,2.08-1.68,3.73-2.94,4.95-1.26,1.21-3.05,1.94-5.39,2.19l-.34-2.45c1.18-.2,2.12-.5,2.82-.88.7-.39,1.26-.88,1.68-1.48.42-.6.81-1.41,1.17-2.43h-1.05l-6.02-17.92h3.33l4.79,15.64,4.69-15.64h3.23l-5.98,18.02Z"/>
      <path class="cls-6" d="m278.93,137.72v17.92h-3.13v-7.48c-.66.61-1.47,1.09-2.43,1.44-.96.35-1.96.53-2.98.53-1.7,0-2.98-.46-3.84-1.38-.86-.92-1.29-2.23-1.29-3.93v-7.11h3.13v6.73c0,1.13.23,1.96.7,2.46.46.51,1.18.77,2.16.77.79,0,1.63-.18,2.5-.54.87-.36,1.56-.83,2.06-1.39v-8.02h3.13Z"/>
      <path class="cls-6" d="m299.33,155.63h-3.09v-8.09c0-1.36.04-2.65.14-3.88.09-1.22.17-2.03.24-2.41l-7.51,14.38h-3.71v-17.92h3.09v8.09c0,1.2-.05,2.44-.14,3.72-.09,1.28-.16,2.1-.2,2.46l7.41-14.28h3.77v17.92Z"/>
      <path class="cls-6" d="m317.9,137.72l-.37,2.55h-5.75v15.37h-3.13v-15.37h-5.92v-2.55h15.16Z"/>
      <path class="cls-6" d="m333.74,147.75h-11.42c.14,1.97.63,3.42,1.5,4.35.86.93,1.97,1.39,3.33,1.39.86,0,1.65-.12,2.38-.37.73-.25,1.48-.65,2.28-1.19l1.36,1.87c-1.9,1.5-3.99,2.24-6.26,2.24-2.49,0-4.44-.82-5.83-2.45s-2.09-3.88-2.09-6.73c0-1.86.3-3.51.9-4.95.6-1.44,1.46-2.57,2.58-3.38s2.44-1.22,3.96-1.22c2.38,0,4.2.78,5.47,2.35,1.27,1.56,1.9,3.73,1.9,6.49,0,.52-.02,1.05-.07,1.6Zm-3.03-2.52c0-1.77-.35-3.12-1.05-4.05-.7-.93-1.76-1.39-3.16-1.39-2.56,0-3.96,1.88-4.18,5.64h8.4v-.2Z"/>
      <path class="cls-5" d="m12.65,194.63v-14.38h-5.44v14.38H2.38v-18.02h15.1v18.02h-4.83Z"/>
      <path class="cls-5" d="m36.14,178.6c1.52,1.69,2.28,4.03,2.28,7.02,0,1.9-.35,3.58-1.04,5.01-.69,1.44-1.69,2.56-2.99,3.35-1.3.79-2.84,1.19-4.61,1.19-2.7,0-4.81-.84-6.34-2.53-1.53-1.69-2.29-4.03-2.29-7.02,0-1.9.35-3.58,1.04-5.02.69-1.44,1.69-2.56,2.99-3.35,1.3-.79,2.85-1.19,4.64-1.19,2.7,0,4.81.84,6.32,2.53Zm-9.06,2.52c-.6.96-.9,2.47-.9,4.51s.3,3.54.9,4.5c.6.96,1.5,1.44,2.7,1.44s2.1-.48,2.7-1.44.9-2.47.9-4.5-.29-3.54-.88-4.51c-.59-.96-1.48-1.44-2.69-1.44s-2.14.48-2.74,1.44Z"/>
      <path class="cls-5" d="m52.85,176.6c.96.35,1.88.9,2.74,1.65l-2.11,2.86c-.59-.45-1.16-.78-1.72-.99-.56-.2-1.16-.31-1.82-.31-2.56,0-3.84,1.97-3.84,5.92,0,2,.33,3.42.99,4.28.66.86,1.6,1.29,2.82,1.29.63,0,1.21-.1,1.73-.29.52-.19,1.13-.52,1.84-.97l2.11,3.03c-1.72,1.41-3.69,2.11-5.92,2.11-1.77,0-3.3-.39-4.61-1.16-1.3-.77-2.31-1.86-3.01-3.28-.7-1.42-1.05-3.08-1.05-4.98s.35-3.59,1.05-5.05c.7-1.46,1.71-2.6,3.01-3.42,1.3-.82,2.82-1.22,4.54-1.22,1.2,0,2.28.18,3.25.53Z"/>
      <path class="cls-5" d="m72.01,176.61l-.61,3.64h-5.1v14.38h-4.83v-14.38h-5.41v-3.64h15.95Z"/>
      <path class="cls-5" d="m87.28,178.6c1.52,1.69,2.28,4.03,2.28,7.02,0,1.9-.35,3.58-1.04,5.01-.69,1.44-1.69,2.56-2.99,3.35-1.3.79-2.84,1.19-4.61,1.19-2.7,0-4.81-.84-6.34-2.53-1.53-1.69-2.29-4.03-2.29-7.02,0-1.9.35-3.58,1.04-5.02.69-1.44,1.69-2.56,2.99-3.35,1.3-.79,2.85-1.19,4.64-1.19,2.7,0,4.81.84,6.32,2.53Zm-9.06,2.52c-.6.96-.9,2.47-.9,4.51s.3,3.54.9,4.5c.6.96,1.5,1.44,2.7,1.44s2.1-.48,2.7-1.44.9-2.47.9-4.5-.29-3.54-.88-4.51c-.59-.96-1.48-1.44-2.69-1.44s-2.14.48-2.74,1.44Z"/>
      <path class="cls-5" d="m107,176.61v18.02h-4.83v-6.43h-2.65l-3.43,6.43h-5.2l4.22-7.55c-1.93-.97-2.89-2.54-2.89-4.69,0-1.9.7-3.34,2.09-4.32,1.39-.97,3.41-1.46,6.04-1.46h6.66Zm-4.83,8.6v-5.41h-1.87c-2.09,0-3.13.87-3.13,2.62,0,1.86,1.01,2.79,3.03,2.79h1.97Z"/>
      <path class="cls-5" d="m122.16,194.63v-7.34h-5.58v7.34h-4.83v-18.02h4.83v7.04h5.58v-7.04h4.83v18.02h-4.83Z"/>
      <path class="cls-5" d="m142.15,194.63v-7.34h-5.58v7.34h-4.83v-18.02h4.83v7.04h5.58v-7.04h4.83v18.02h-4.83Z"/>
      <path class="cls-5" d="m161.02,194.67c-.73,2.29-1.86,4.06-3.42,5.3-1.55,1.25-3.66,1.96-6.31,2.14l-.51-3.47c1.72-.23,2.99-.64,3.79-1.22.8-.59,1.47-1.52,1.99-2.79h-1.67l-5.61-18.02h5.13l3.6,14.89,3.81-14.89h5l-5.81,18.05Z"/>
      <path class="cls-5" d="m188.84,177.21c1.22.76,2.18,1.86,2.86,3.3.68,1.44,1.02,3.15,1.02,5.12,0,1.86-.33,3.51-.99,4.95-.66,1.44-1.6,2.57-2.84,3.38-1.24.82-2.69,1.22-4.37,1.22-2.27,0-4.09-.71-5.47-2.12-1.38-1.42-2.22-3.37-2.52-5.86h-2.55v7.45h-4.83v-18.02h4.83v7.14h2.62c.34-2.33,1.2-4.2,2.57-5.59,1.37-1.39,3.17-2.09,5.39-2.09,1.63,0,3.06.38,4.28,1.14Zm-1.82,12.9c.51-.97.77-2.47.77-4.49,0-3.94-1.08-5.92-3.23-5.92-1.09,0-1.9.48-2.43,1.43-.53.95-.8,2.45-.8,4.49s.26,3.48.78,4.47c.52.99,1.33,1.48,2.41,1.48,1.16,0,1.99-.49,2.5-1.46Z"/>
      <path class="cls-5" d="m215.47,176.6c.96.35,1.88.9,2.74,1.65l-2.11,2.86c-.59-.45-1.16-.78-1.72-.99-.56-.2-1.16-.31-1.82-.31-2.56,0-3.84,1.97-3.84,5.92,0,2,.33,3.42.99,4.28.66.86,1.6,1.29,2.82,1.29.63,0,1.21-.1,1.73-.29.52-.19,1.13-.52,1.84-.97l2.11,3.03c-1.72,1.41-3.69,2.11-5.92,2.11-1.77,0-3.3-.39-4.61-1.16-1.3-.77-2.31-1.86-3.01-3.28-.7-1.42-1.05-3.08-1.05-4.98s.35-3.59,1.05-5.05c.7-1.46,1.71-2.6,3.01-3.42,1.3-.82,2.82-1.22,4.54-1.22,1.2,0,2.28.18,3.25.53Z"/>
      <path class="cls-5" d="m236.5,176.61l-4.96,8.36,5.44,9.66h-5.2l-4.18-7.89h-1.8v7.89h-4.83v-18.02h4.83v7.07h1.9l4.05-7.07h4.76Z"/>
      <path class="cls-5" d="m254.76,194.63h-4.62v-6.83c0-1.29.07-2.52.2-3.67.14-1.16.28-2.07.44-2.75l-6.39,13.26h-5.03v-18.02h4.62v6.9c0,1.22-.06,2.43-.19,3.62s-.27,2.1-.42,2.74l6.29-13.26h5.1v18.02Z"/>
      <path class="cls-5" d="m275.47,191.03v9.11h-3.43l-.58-5.51h-10.3l-.58,5.51h-3.43v-9.11h1.16c.43-.32.79-.7,1.07-1.16.28-.45.54-1.22.77-2.31.23-1.09.42-2.65.58-4.69l.48-6.26h12.38v14.42h1.9Zm-6.46-11.12h-3.64l-.2,2.48c-.16,1.9-.36,3.41-.59,4.51-.24,1.1-.56,1.96-.95,2.58-.4.62-.94,1.14-1.62,1.55h7v-11.12Z"/>
      <path class="cls-5" d="m293.96,176.61l-4.96,8.36,5.44,9.66h-5.2l-4.18-7.89h-1.8v7.89h-4.83v-18.02h4.83v7.07h1.9l4.05-7.07h4.76Z"/>
      <path class="cls-5" d="m306.1,194.67c-.73,2.29-1.86,4.06-3.42,5.3-1.55,1.25-3.66,1.96-6.31,2.14l-.51-3.47c1.72-.23,2.99-.64,3.79-1.22.8-.59,1.47-1.52,1.99-2.79h-1.67l-5.61-18.02h5.13l3.6,14.89,3.81-14.89h5l-5.81,18.05Z"/>
      <path class="cls-5" d="m332.62,171.72v22.92h-4.73v-18.16l-5.03,3.09-2.11-3.26,7.62-4.59h4.25Z"/>
      <path class="cls-5" d="m350.81,175.22h-8.47v5.27c1.11-.52,2.27-.78,3.47-.78,1.27,0,2.4.29,3.38.88.99.59,1.76,1.44,2.33,2.57.57,1.12.85,2.44.85,3.96s-.36,2.99-1.09,4.2c-.73,1.21-1.75,2.16-3.08,2.84-1.33.68-2.86,1.02-4.61,1.02-2.95,0-5.42-1.11-7.41-3.33l2.72-2.55c1.27,1.45,2.79,2.18,4.56,2.18,1.25,0,2.22-.37,2.91-1.12.69-.75,1.04-1.82,1.04-3.23,0-2.7-1.16-4.05-3.47-4.05-.5,0-.97.06-1.41.19-.44.12-.92.33-1.44.63h-3.37v-12.17h13.67l-.58,3.5Z"/>
      <path class="cls-5" d="m362.96,172.01c.9.49,1.6,1.19,2.11,2.11.51.92.77,1.98.77,3.18s-.25,2.26-.77,3.18c-.51.92-1.21,1.62-2.11,2.11-.9.49-1.91.73-3.04.73s-2.11-.24-3.01-.73c-.9-.49-1.6-1.19-2.12-2.11s-.78-1.98-.78-3.18.26-2.26.78-3.18,1.23-1.62,2.12-2.11c.9-.49,1.9-.73,3.01-.73s2.15.24,3.04.73Zm-5.39,5.29c0,.88.18,1.61.53,2.19.35.58.96.87,1.82.87,1.54,0,2.31-1.02,2.31-3.06s-.77-3.06-2.31-3.06-2.35,1.02-2.35,3.06Zm16.15-7.07l3.06,1.94-15.78,23.77-3.03-1.94,15.74-23.77Zm4.1,13.65c.9.49,1.6,1.19,2.11,2.11.51.92.77,1.98.77,3.18s-.25,2.26-.77,3.16c-.51.91-1.22,1.61-2.12,2.11-.91.5-1.92.75-3.03.75s-2.12-.25-3.03-.75c-.91-.5-1.62-1.2-2.14-2.11-.52-.91-.78-1.96-.78-3.16s.26-2.26.78-3.18c.52-.92,1.24-1.62,2.14-2.11.91-.49,1.92-.73,3.03-.73s2.15.24,3.04.73Zm-5.39,5.29c0,.88.18,1.62.53,2.19.35.58.96.87,1.82.87,1.54,0,2.31-1.02,2.31-3.06s-.77-3.06-2.31-3.06-2.35,1.02-2.35,3.06Z"/>
      <path class="cls-6" d="m13.8,233.63v-7.89h-7.45v7.89h-3.13v-17.92h3.13v7.51h7.45v-7.51h3.13v17.92h-3.13Z"/>
      <path class="cls-6" d="m35.84,231.07c.25.35.62.62,1.12.8l-.71,2.18c-.93-.11-1.68-.37-2.24-.78-.57-.41-.99-1.04-1.26-1.9-1.2,1.79-2.98,2.69-5.34,2.69-1.77,0-3.16-.5-4.18-1.5-1.02-1-1.53-2.3-1.53-3.91,0-1.9.69-3.37,2.06-4.39,1.37-1.02,3.31-1.53,5.83-1.53h2.75v-1.33c0-1.27-.31-2.18-.92-2.72-.61-.54-1.55-.82-2.82-.82s-2.92.32-4.83.95l-.78-2.28c2.22-.82,4.28-1.22,6.19-1.22,2.11,0,3.68.52,4.73,1.55,1.04,1.03,1.56,2.5,1.56,4.4v8.19c0,.73.12,1.26.37,1.62Zm-3.5-2.16v-4.11h-2.35c-3.31,0-4.96,1.22-4.96,3.67,0,1.07.26,1.87.78,2.41.52.54,1.29.82,2.31.82,1.79,0,3.2-.93,4.22-2.79Z"/>
      <path class="cls-6" d="m64.33,215.72l-5.44,8.3,6.09,9.62h-3.71l-4.96-8.26h-2.28v8.26h-3.13v-17.92h3.13v7.21h2.35l4.52-7.21h3.43Z"/>
      <path class="cls-6" d="m80.84,217.82c1.39,1.68,2.09,3.96,2.09,6.83,0,1.86-.32,3.5-.95,4.91-.63,1.42-1.55,2.52-2.75,3.3-1.2.78-2.63,1.17-4.28,1.17-2.52,0-4.48-.84-5.88-2.52-1.41-1.68-2.11-3.96-2.11-6.83,0-1.86.32-3.5.95-4.91.63-1.42,1.55-2.52,2.75-3.3,1.2-.78,2.64-1.17,4.32-1.17,2.52,0,4.47.84,5.87,2.52Zm-10.52,6.87c0,4.56,1.54,6.83,4.62,6.83s4.62-2.29,4.62-6.87-1.53-6.83-4.59-6.83-4.66,2.29-4.66,6.87Z"/>
      <path class="cls-6" d="m98.67,233.63v-7.89h-7.45v7.89h-3.13v-17.92h3.13v7.51h7.45v-7.51h3.13v17.92h-3.13Z"/>
      <path class="cls-6" d="m121.69,231.12h2.72v7.62h-2.55l-.51-5.1h-13.09v-17.92h3.13v15.37h7.17v-15.37h3.13v15.4Z"/>
      <path class="cls-6" d="m141.27,225.75h-11.42c.14,1.97.63,3.42,1.5,4.35.86.93,1.97,1.39,3.33,1.39.86,0,1.65-.12,2.38-.37.73-.25,1.48-.65,2.28-1.19l1.36,1.87c-1.9,1.5-3.99,2.24-6.26,2.24-2.49,0-4.44-.82-5.83-2.45s-2.09-3.88-2.09-6.73c0-1.86.3-3.51.9-4.95.6-1.44,1.46-2.57,2.58-3.38s2.44-1.22,3.96-1.22c2.38,0,4.2.78,5.47,2.35,1.27,1.56,1.9,3.73,1.9,6.49,0,.52-.02,1.05-.07,1.6Zm-3.03-2.52c0-1.77-.35-3.12-1.05-4.05-.7-.93-1.76-1.39-3.16-1.39-2.56,0-3.96,1.88-4.18,5.64h8.4v-.2Z"/>
      <path class="cls-6" d="m159.6,217.76c1.06,1.63,1.6,3.93,1.6,6.9,0,2.81-.61,5.08-1.84,6.8s-2.96,2.58-5.2,2.58c-1.99,0-3.56-.68-4.69-2.04v8.5l-3.13.37v-25.16h2.69l.24,2.41c.66-.91,1.45-1.6,2.38-2.09.93-.49,1.9-.73,2.92-.73,2.29,0,3.97.82,5.03,2.45Zm-1.77,6.9c0-4.58-1.35-6.87-4.05-6.87-.88,0-1.69.26-2.41.78-.73.52-1.36,1.19-1.9,2.01v8.74c.45.7,1.02,1.24,1.7,1.61.68.37,1.43.56,2.24.56,2.95,0,4.42-2.28,4.42-6.83Z"/>
      <path class="cls-6" d="m177.79,215.72l-.37,2.55h-5.75v15.37h-3.13v-15.37h-5.92v-2.55h15.16Z"/>
      <path class="cls-6" d="m192,223.06c1.2,1.04,1.8,2.53,1.8,4.45s-.67,3.54-2.02,4.57c-1.35,1.03-3.02,1.55-5.02,1.55h-5.75v-17.92h3.13v5.78h2.04c2.67,0,4.61.52,5.81,1.56Zm-2.57,7.28c.69-.57,1.04-1.51,1.04-2.82,0-1.25-.32-2.16-.97-2.75-.65-.59-1.76-.88-3.35-.88h-2.01v7.31h2.35c1.27,0,2.25-.28,2.94-.85Zm6.95-14.62h3.13v17.92h-3.13v-17.92Z"/>
      <path class="cls-6" d="m228.92,233.63h-3.09v-8.09c0-1.36.04-2.65.14-3.88.09-1.22.17-2.03.24-2.41l-7.51,14.38h-3.71v-17.92h3.09v8.09c0,1.2-.05,2.44-.14,3.72-.09,1.28-.16,2.1-.2,2.46l7.41-14.28h3.77v17.92Z"/>
      <path class="cls-6" d="m242.98,215.87c.99.37,1.78.92,2.38,1.65.6.73.9,1.6.9,2.62s-.29,1.81-.87,2.45c-.58.63-1.49,1.12-2.74,1.46,1.5.25,2.63.71,3.4,1.39.77.68,1.16,1.65,1.16,2.92,0,1.86-.72,3.27-2.16,4.23-1.44.96-3.27,1.45-5.49,1.45-2.7,0-5-.75-6.9-2.24l1.63-1.94c.79.57,1.59.99,2.4,1.26.8.27,1.73.41,2.77.41,2.92,0,4.39-1.07,4.39-3.2,0-1.04-.41-1.77-1.24-2.19-.83-.42-1.98-.63-3.45-.63h-2.38l.2-2.45h1.84c1.27,0,2.29-.23,3.06-.68.77-.45,1.16-1.16,1.16-2.11,0-.88-.33-1.52-.99-1.92-.66-.4-1.52-.59-2.58-.59-.93,0-1.75.12-2.46.36-.71.24-1.43.61-2.16,1.1l-1.5-1.87c.91-.68,1.88-1.19,2.92-1.53s2.22-.51,3.54-.51c1.13,0,2.19.19,3.18.56Z"/>
      <path class="cls-6" d="m273.83,231.07c.25.35.62.62,1.12.8l-.71,2.18c-.93-.11-1.68-.37-2.24-.78-.57-.41-.99-1.04-1.26-1.9-1.2,1.79-2.98,2.69-5.34,2.69-1.77,0-3.16-.5-4.18-1.5-1.02-1-1.53-2.3-1.53-3.91,0-1.9.69-3.37,2.06-4.39,1.37-1.02,3.31-1.53,5.83-1.53h2.75v-1.33c0-1.27-.31-2.18-.92-2.72-.61-.54-1.55-.82-2.82-.82s-2.92.32-4.83.95l-.78-2.28c2.22-.82,4.28-1.22,6.19-1.22,2.11,0,3.68.52,4.73,1.55,1.04,1.03,1.56,2.5,1.56,4.4v8.19c0,.73.12,1.26.37,1.62Zm-3.5-2.16v-4.11h-2.35c-3.31,0-4.96,1.22-4.96,3.67,0,1.07.26,1.87.78,2.41.52.54,1.29.82,2.31.82,1.79,0,3.2-.93,4.22-2.79Z"/>
      <path class="cls-6" d="m300.88,217.72c.94,1.61,1.41,3.92,1.41,6.94,0,2.86-.54,5.13-1.63,6.83s-2.6,2.55-4.52,2.55c-1.7,0-3.07-.76-4.11-2.28v8.74l-2.99.37v-9.11c-.5.73-1.13,1.29-1.9,1.68-.77.4-1.6.59-2.48.59-1.81,0-3.25-.85-4.3-2.55s-1.58-3.98-1.58-6.83.46-5.3,1.38-6.92c.92-1.62,2.43-2.43,4.54-2.43,1.84,0,3.29.66,4.35,1.97v-9.15l2.99.37v8.84c1.04-1.36,2.44-2.04,4.18-2.04,2.18,0,3.73.81,4.68,2.41Zm-13.5,13.24c.62-.4,1.17-.95,1.65-1.65v-9.49c-1.02-1.36-2.26-2.04-3.71-2.04-1.04,0-1.84.57-2.38,1.72-.54,1.15-.82,2.86-.82,5.15s.28,4.01.85,5.17c.57,1.16,1.36,1.73,2.38,1.73.73,0,1.4-.2,2.02-.59Zm10.66-1.14c.59-1.16.88-2.88.88-5.17,0-4.58-1.12-6.87-3.37-6.87-1.43,0-2.61.7-3.54,2.11v9.45c.48.73,1,1.28,1.56,1.65.57.37,1.22.56,1.97.56,1.07,0,1.89-.58,2.48-1.73Z"/>
      <path class="cls-6" d="m321.57,233.63h-3.09v-8.09c0-1.36.04-2.65.14-3.88.09-1.22.17-2.03.24-2.41l-7.51,14.38h-3.71v-17.92h3.09v8.09c0,1.2-.05,2.44-.14,3.72-.09,1.28-.16,2.1-.2,2.46l7.41-14.28h3.77v17.92Z"/>
      <path class="cls-6" d="m348.63,215.72v17.92h-20.6v-17.92h3.06v15.4h5.75v-15.4h2.99v15.4h5.75v-15.4h3.06Z"/>
      <path class="cls-6" d="m369.03,233.63h-3.09v-8.09c0-1.36.04-2.65.14-3.88.09-1.22.17-2.03.24-2.41l-7.51,14.38h-3.71v-17.92h3.09v8.09c0,1.2-.05,2.44-.14,3.72-.09,1.28-.16,2.1-.2,2.46l7.41-14.28h3.77v17.92Z"/>
      <path class="cls-6" d="m378.04,230c.45.45.68,1.01.68,1.67s-.23,1.22-.68,1.68c-.45.46-1.02.7-1.7.7s-1.21-.23-1.67-.7c-.45-.46-.68-1.03-.68-1.68s.23-1.21.68-1.67c.45-.45,1.01-.68,1.67-.68s1.25.23,1.7.68Zm0-19.79l-.34,15.61h-2.75l-.37-15.61h3.47Z"/>
    </g>
  </g>
</svg>