<?xml version="1.0" encoding="UTF-8"?>
<svg id="Character" xmlns="http://www.w3.org/2000/svg" viewBox="0 0 301 198">
  <defs>
    <style>
      .cls-1 {
        fill: #eb996e;
      }

      .cls-2 {
        fill: #ffc7ae;
      }

      .cls-3 {
        fill: #fafafa;
      }

      .cls-4 {
        fill: #fcf7f2;
      }

      .cls-5 {
        fill: #ff842c;
      }

      .cls-6 {
        fill: #1a1b1c;
      }

      .cls-7 {
        fill: #455a64;
      }

      .cls-8 {
        fill: #263238;
      }

      .cls-9 {
        opacity: .3;
      }
    </style>
  </defs>
  <rect class="cls-4" y="0" width="301" height="198"/>
  <g>
    <path class="cls-2" d="m273.4,92.95s7.06-4.3,8.66-3.04c2.3,1.82,3.06,4.9,3.06,4.9,0,0,3.73-14.23,7.29-13.69,2.04.31,1.04,1.9.12,3.9-.85,1.85-2.3,8.66-2.3,8.66,0,0,6.75-8.01,8.74-7.87,1.53.11,1.76,1.46-.45,3.63-2.21,2.17-5.88,8.99-5.88,8.99,0,0,4.73-4.41,6.68-4.43,1.56-.02,2.56,1.06.55,2.81-2.02,1.75-5.07,3.06-6.7,6.23-2.01,3.9-6.28,13.64-6.28,13.64l-14.97-5.3s-2.44-9.93-2.53-12.35c0,0,.2-5.1.18-6.01-.03-.91,2.38-1.14,3.11.6.73,1.74.4,3.57.7,4.73.3,1.16.82,2.23,1.67,2.75.85.52,3,.55,3.56-.09.55-.64,1.22-2.51,1.36-3.65.15-1.15-.04-2.96-.04-2.96,0,0-6.22,2.53-6.52-1.46Z"/>
    <g>
      <g>
        <path class="cls-2" d="m105.15,139.3l-10.41-3.9s-10.59-6.2-12.55-4c0,0-2.1-1-3.03,1.24-.54,1.29,1.24,3.17,1.24,3.17,0,0-.55.56.32,2.46.88,1.9,10.93,7.9,10.93,7.9,0,0,13.07,7.13,18.36,10.54l9.12-12.41-1.27-.47s-.75-6.18-3.28-7.83c-2.75-1.79-6.08-6.65-6.81-8.55s-4.24-1.02-3.66,2.92c.58,3.95,3.66,4.97,3.36,7.6-.29,2.63-2.34,1.32-2.34,1.32Z"/>
        <path class="cls-1" d="m89.2,140.75c-.04.07-2.07-.99-4.53-2.36-2.46-1.38-4.42-2.56-4.38-2.63.04-.07,2.07.99,4.53,2.36,2.46,1.38,4.42,2.55,4.38,2.63Z"/>
        <path class="cls-1" d="m94.27,137.82s-.73-.25-1.87-.74c-1.14-.49-2.7-1.21-4.39-2.07-1.69-.86-3.17-1.73-4.22-2.41-.52-.34-.93-.63-1.21-.84-.28-.21-.42-.34-.41-.35.03-.04.67.38,1.73,1.01,1.06.63,2.56,1.46,4.24,2.32,1.68.86,3.22,1.6,4.34,2.14,1.11.54,1.8.9,1.78.94Z"/>
        <path class="cls-1" d="m96.46,143.55s-.34-.16-.92-.5c-.62-.37-1.45-.87-2.45-1.46l-.03-.02-.02-.03c-.46-.99-1.03-2.16-1.77-3.38-.37-.6-.78-1.25-1.32-1.75-.54-.5-1.4-.59-2.05-.15-.14.08-.31.24-.33.3.02.02.01.03.02.07l.04.13c.03.09.06.17.09.26.13.35.26.69.4,1.03.27.67.54,1.32.8,1.94.52,1.23.99,2.37,1.41,3.36l-.02-.03c.85,1,1.56,1.83,2.09,2.45.22.27.41.49.56.68.13.16.19.25.18.25,0,0-.09-.06-.23-.21-.17-.17-.37-.39-.61-.64-.55-.6-1.28-1.41-2.17-2.38h-.01s0-.03,0-.03c-.43-.97-.93-2.1-1.46-3.34-.26-.62-.53-1.27-.81-1.94-.14-.34-.27-.68-.4-1.03-.03-.09-.07-.18-.1-.27l-.05-.14c-.02-.05-.03-.14-.03-.21.05-.18.14-.22.21-.31.08-.07.16-.13.25-.19.37-.24.82-.36,1.25-.32.44.03.84.24,1.15.51.6.56.99,1.21,1.37,1.83.73,1.25,1.29,2.43,1.73,3.44l-.04-.05c.98.63,1.79,1.15,2.4,1.55.56.37.87.59.86.6Z"/>
      </g>
      <path class="cls-1" d="m106.9,143.65s-.5-.09-1.28-.31c-.78-.21-1.86-.51-3.08-.54-1.21-.03-2.29.31-2.97.73-.68.41-.98.82-1.03.79-.03-.01.22-.49.91-.97.68-.48,1.81-.88,3.09-.85,1.27.03,2.37.38,3.13.64.77.27,1.23.48,1.21.52Z"/>
      <path class="cls-1" d="m106.11,140.9c.07.05-.19.5-.44,1.08-.26.58-.41,1.07-.5,1.06-.08-.01-.05-.56.22-1.18.27-.62.66-1.01.72-.96Z"/>
    </g>
    <g>
      <path class="cls-8" d="m166.09,91.44c.72-4.9,6.43-11.94,11.48-11.94-2.9-4.2-2.94-10.11-.11-14.35,1.95-2.92,5.09-5.06,6.43-8.3,1.51-3.66.35-7.79.49-11.74.21-5.77,3.21-11.05,6.14-16.06,2.68-4.59,5.95-9.63,11.22-10.76,3.34-.71,6.8.34,9.93,1.67,14.99,6.38,26.64,19.84,30.64,35.37.96,3.72,1.6,7.74,4.19,10.61,2.74,3.04,7.55,4.69,8.37,8.68.59,2.85-1.24,5.72-.97,8.62.23,2.43,4.78,9.51,5.83,11.72,1.81,3.81,1.15,7.93-.69,11.73-1.84,3.8-6.52,7.49-10.68,8.53l-46.45-15.48c-4.37,2.49-8.72,12.11-13.74,12.7-5.02.59-11.14,2.78-15.97-2.51-5.06-5.54-6.84-13.6-6.13-18.5Z"/>
      <path class="cls-8" d="m240.74,42.97c-.52,3.89.55,10.31,2.67,13.64,1.43,2.23,3.81,3.68,6.15,4.95,2.35,1.28,4.81,2.5,6.59,4.47,1.78,1.97,2.73,4.92,1.54,7.28,4.18,1.56,6.06,6.89,4.53,11.01-1.54,4.12-5.74,6.9-10.14,7.72l-19.16-5.76-4.21-24.45,11.06-18.86"/>
      <path class="cls-7" d="m245.46,70.16s.13.05.37.16c.24.13.61.27,1.05.54.89.51,2.12,1.4,3.36,2.8.63.69,1.22,1.54,1.79,2.49.53.97,1.06,2.05,1.39,3.26.75,2.39.91,5.3.05,8.16l-.07-.18c1.1.61,2.17,1.42,3.12,2.37,2.45,2.43,3.84,5.58,4.18,8.53.33,2.97-.38,5.67-1.37,7.67-1,2.02-2.23,3.39-3.15,4.23-.47.42-.84.72-1.12.91-.27.19-.41.29-.42.28,0,0,.13-.12.38-.33.26-.2.62-.52,1.07-.94.88-.86,2.08-2.24,3.03-4.24.95-1.98,1.62-4.63,1.29-7.54-.34-2.89-1.72-5.97-4.12-8.35-.93-.93-1.97-1.72-3.05-2.32l-.11-.06.04-.12c.84-2.79.7-5.64-.02-7.99-.32-1.2-.84-2.26-1.35-3.22-.55-.94-1.12-1.78-1.73-2.47-1.21-1.4-2.4-2.3-3.26-2.84-.42-.29-.79-.44-1.02-.59-.23-.13-.35-.2-.35-.21Z"/>
    </g>
    <g>
      <path class="cls-5" d="m188.78,95.48s-8.56,2.6-11.56,6.97c-2.12,3.09-23.86,50.16-23.86,50.16l-32.99-9.92-11.8,15.58,36.71,20.35c6.81,3.77,15.08,3.74,21.86-.1h0c3.76-2.13,6.82-5.29,8.81-9.12l9.33-17.88,3.5-56.04Z"/>
      <path class="cls-5" d="m180.02,198l5.15-22.21-3.9-16.12c-2.51-8.3-4.67-21.83-1.93-32.72l9.12-31.32,10.03-4.61,22.96-3.95c.88.29,24.01,6.83,24.01,6.83,3.2.74,4.49,1.25,4.49,1.25l2.65,17.15-7.97,28.26-3.47,28.16,7.63,29.29h-68.76Z"/>
      <path class="cls-2" d="m193.29,93.41l6.66-2.98,30.01.42,7.1,4.12s-24.79,27.36-31.01,28.27c-15.65,2.28-12.75-29.82-12.75-29.82Z"/>
      <path class="cls-5" d="m249.3,94.91s4.49,1.01,8.35,9.23c3.85,8.22,10.08,31.09,10.08,31.09l2.66-24.24,21.69,2.39-4.2,57.94s-7.68,11.13-20.52,10.11c-12.84-1.03-29.15-41.62-29.15-41.62l11.08-44.89Z"/>
      <path class="cls-8" d="m264.34,164.83s0-.05,0-.14c0-.11.01-.25.02-.41.02-.39.05-.91.09-1.58.08-1.37.25-3.35.47-5.79.45-4.88,1.28-11.61,2.29-19.02,1.01-7.41,1.87-14.13,2.38-19.01.25-2.44.45-4.41.57-5.78.06-.66.11-1.19.15-1.57.02-.16.03-.3.05-.41.01-.09.02-.14.03-.14,0,0,0,.05,0,.14,0,.11-.01.25-.02.41-.02.39-.05.91-.09,1.58-.08,1.37-.25,3.35-.47,5.79-.45,4.88-1.28,11.61-2.29,19.03-1.01,7.41-1.87,14.13-2.38,19-.25,2.44-.45,4.41-.57,5.78-.06.66-.11,1.19-.15,1.57-.02.16-.03.3-.05.41-.01.09-.02.14-.03.14Z"/>
      <path class="cls-8" d="m153.74,165.11s-.1-.15-.24-.43c-.14-.29-.31-.71-.5-1.25-.38-1.07-.78-2.61-.95-4.34-.17-1.73-.07-3.32.1-4.44.08-.56.17-1.01.25-1.32.08-.31.13-.48.15-.47.05.01-.08.7-.19,1.82-.11,1.12-.17,2.68-.01,4.39.17,1.71.53,3.23.85,4.3.32,1.08.59,1.73.54,1.75Z"/>
      <path class="cls-8" d="m157.39,165.64s-.15-.14-.38-.43c-.23-.29-.55-.73-.91-1.28-.72-1.11-1.59-2.75-2.26-4.67-.67-1.92-1-3.74-1.12-5.06-.06-.66-.09-1.2-.09-1.57,0-.37.01-.58.03-.58.05,0,.09.82.27,2.12.18,1.3.54,3.09,1.2,4.99.66,1.89,1.49,3.52,2.16,4.65.67,1.13,1.15,1.8,1.1,1.83Z"/>
      <path class="cls-8" d="m183.07,113.88s-.03.16-.11.47c-.09.33-.22.77-.37,1.33-.33,1.18-.81,2.84-1.38,4.88-1.13,4.13-2.7,9.86-3.45,16.35-.38,3.24-.45,6.36-.13,9.17.3,2.81.92,5.29,1.53,7.34.61,2.05,1.19,3.68,1.59,4.81.19.54.34.98.46,1.3.1.3.15.46.14.46,0,0-.08-.15-.2-.44-.13-.32-.3-.75-.51-1.28-.43-1.12-1.04-2.74-1.69-4.79-.64-2.05-1.28-4.54-1.6-7.37-.34-2.83-.27-5.98.1-9.23.76-6.52,2.36-12.26,3.54-16.38.6-2.06,1.12-3.72,1.48-4.86.18-.55.32-.99.42-1.31.1-.3.16-.46.17-.45Z"/>
      <path class="cls-8" d="m243.74,152.05s-.03-.05-.08-.14c-.05-.11-.12-.25-.2-.43-.18-.4-.43-.96-.76-1.67-.32-.73-.73-1.61-1.17-2.65-.42-1.05-.9-2.25-1.42-3.56-.51-1.33-1-2.8-1.57-4.38-.25-.8-.5-1.63-.77-2.48-.13-.43-.26-.86-.4-1.3-.12-.44-.23-.89-.35-1.35-.98-3.63-1.81-7.71-2.05-12.05-.27-4.34.15-8.53,1.25-12.15,1.04-3.64,2.86-6.62,4.81-8.71,1.94-2.11,3.97-3.32,5.42-3.97.73-.32,1.31-.53,1.72-.64.19-.05.34-.09.46-.13.1-.03.16-.04.16-.03,0,0-.05.03-.15.06-.12.04-.27.09-.45.16-.4.12-.97.35-1.69.69-1.42.68-3.41,1.91-5.31,4.01-1.9,2.08-3.68,5.04-4.7,8.64-1.08,3.59-1.48,7.74-1.22,12.05.24,4.32,1.06,8.38,2.02,12,.12.45.23.9.35,1.34.13.44.26.87.39,1.29.26.85.51,1.68.75,2.47.55,1.57,1.03,3.05,1.53,4.38.51,1.32.97,2.52,1.38,3.57.42,1.05.82,1.93,1.12,2.67.3.72.53,1.28.7,1.69.07.18.13.33.18.44.04.1.06.15.05.16Z"/>
      <g class="cls-9">
        <path d="m235.47,125.81c-2.84,13.42-2.87,27.22,2.01,40.03.28.74,1.4,3.39,2.2,3.43,1.01.05,1.49-1.2,1.66-2.2.36-2.04.58-5.4.94-7.45.45-2.56,1.06-8.48,1.06-8.48,0,0-2.35-5.37-3.38-8.25-1.91-5.34-3.53-10.44-4.43-16.67"/>
      </g>
      <path class="cls-8" d="m233.15,177.79s-.07.13-.23.35c-.18.25-.41.57-.7.97-.16.21-.33.45-.51.7-.2.25-.43.5-.67.78-.49.55-1.01,1.22-1.7,1.85-.33.33-.68.67-1.04,1.02-.37.35-.79.67-1.2,1.03-.82.73-1.78,1.39-2.78,2.11-2.05,1.36-4.43,2.67-7.07,3.72-2.66,1.02-5.3,1.66-7.72,2.05-1.22.15-2.38.31-3.48.33-.55.02-1.07.06-1.58.05-.51-.02-.99-.03-1.46-.05-.93,0-1.76-.14-2.5-.21-.37-.04-.71-.07-1.02-.12-.31-.06-.59-.12-.85-.17-.48-.1-.87-.18-1.17-.24-.27-.06-.41-.09-.4-.11,0-.01.15,0,.42.05.3.05.69.11,1.18.19.26.04.54.09.85.14.31.04.65.06,1.02.1.73.06,1.56.18,2.49.16.46,0,.95.02,1.45.03.5,0,1.03-.05,1.57-.07,1.09-.02,2.24-.2,3.45-.35,2.41-.4,5.02-1.05,7.66-2.06,2.62-1.04,4.98-2.33,7.03-3.66.99-.71,1.96-1.35,2.78-2.07.41-.35.84-.67,1.2-1.01.36-.35.71-.68,1.05-1,.69-.62,1.22-1.27,1.72-1.8.24-.27.48-.52.68-.76.19-.25.37-.47.53-.68.31-.39.55-.7.74-.94.17-.21.27-.32.28-.31Z"/>
      <path class="cls-8" d="m228.42,168.91s0,.23-.08.64c-.06.41-.2.99-.41,1.7-.41,1.42-1.18,3.33-2.41,5.22-1.23,1.89-2.66,3.38-3.78,4.33-.56.48-1.04.84-1.38,1.06-.34.23-.54.35-.55.33-.03-.04.71-.57,1.79-1.56,1.08-.98,2.46-2.47,3.67-4.34,1.21-1.87,2-3.74,2.46-5.12.46-1.39.63-2.28.69-2.27Z"/>
    </g>
    <g>
      <g>
        <path class="cls-5" d="m217.85,14.58c8.12.06,16.07,4.64,20.18,11.65,4.11,7.01,4.24,16.18.33,23.3-1.33,2.43-3.25,4.72-5.89,5.57.9-13.92-4.65-28.13-14.75-37.75"/>
        <path class="cls-5" d="m227.36,16.68c-1.21-2.51.08-5.65,2.24-7.41,2.15-1.77,4.95-2.48,7.66-3.13,2.71-.65,5.51-1.32,7.71-3.02-.32,4.36-1.4,8.85-4.22,12.18-2.82,3.34-7.71,5.2-11.74,3.5"/>
        <path class="cls-5" d="m230.16,19.56c-1.85.78-4.06.29-5.72-.84s-2.84-2.84-3.82-4.6c-1.2-2.16-2.13-4.49-2.45-6.94s.02-5.02,1.23-7.17c3.19,3.39,6.7,6.25,8.52,10.53,1.07,2.52.94,6.55-.21,9.03"/>
        <path class="cls-8" d="m239.18,33.67s.08.28.16.81c.04.26.09.58.12.96.03.38.08.8.09,1.28.05.95.04,2.08-.06,3.34-.11,1.25-.31,2.62-.64,4.04-.34,1.41-.78,2.73-1.25,3.9-.48,1.16-.98,2.18-1.45,3.01-.22.42-.46.78-.66,1.1-.2.32-.38.59-.54.8-.31.43-.49.66-.51.65-.02-.01.13-.27.41-.72.14-.22.31-.5.49-.83.18-.33.41-.69.62-1.11.45-.83.92-1.85,1.38-3.01.45-1.16.87-2.47,1.21-3.86.33-1.4.53-2.76.66-3.99.11-1.24.15-2.36.12-3.31,0-.47-.03-.9-.05-1.27-.01-.38-.04-.7-.07-.96-.05-.53-.06-.82-.04-.82Z"/>
        <path class="cls-8" d="m237.36,18.06s-.21.2-.64.51c-.46.25-1.16.63-2.1.81-1.87.43-4.58.34-7.43-.42l-.08-.02-.02-.09c-.04-.17-.08-.36-.12-.55-.31-1.51-.38-3-.19-4.33.17-1.33.63-2.49,1.22-3.32.57-.85,1.27-1.33,1.73-1.65.5-.27.77-.41.78-.39,0,.02-.25.19-.72.49-.43.35-1.09.83-1.62,1.67-.55.82-.97,1.94-1.12,3.24-.17,1.29-.09,2.75.21,4.23.04.18.08.37.12.54l-.1-.11c2.8.75,5.47.87,7.3.51.93-.16,1.61-.49,2.09-.71.44-.28.69-.43.7-.41Z"/>
        <path class="cls-8" d="m239.75,10.52c0,.06-.85.18-2.19.57-.67.19-1.45.48-2.29.85-.83.38-1.73.85-2.62,1.43-.88.59-1.67,1.22-2.36,1.83-.67.62-1.25,1.22-1.69,1.76-.89,1.07-1.35,1.81-1.4,1.78-.02-.01.08-.2.28-.54.19-.34.52-.81.95-1.37.43-.56.99-1.18,1.67-1.83.68-.63,1.48-1.28,2.38-1.88.9-.59,1.82-1.06,2.67-1.43.86-.36,1.66-.63,2.34-.8.68-.17,1.24-.28,1.63-.32.39-.05.61-.06.61-.04Z"/>
        <path class="cls-8" d="m230.03,19.49s0,.06-.02.17c-.02.11-.07.28-.16.48-.17.41-.53.96-1.15,1.46-.62.48-1.54.9-2.62.84-1.08-.04-2.19-.69-2.88-1.7-.69-1.01-.9-2.28-.54-3.3.34-1.02,1.06-1.73,1.73-2.14.69-.4,1.33-.54,1.77-.55.22,0,.39,0,.5.03.11.02.17.03.17.04,0,.03-.24,0-.67.05-.42.05-1.03.21-1.67.61-.62.41-1.28,1.09-1.58,2.04-.31.94-.12,2.1.53,3.04.65.94,1.66,1.54,2.65,1.59.99.07,1.86-.3,2.47-.74.61-.45.98-.96,1.17-1.34.2-.38.25-.61.28-.6Z"/>
        <path class="cls-8" d="m222.97,19.63s-.2-.32.07-.77c.13-.21.37-.43.69-.54.31-.11.68-.13,1.04-.11,1.45.1,2.51.67,2.47.74-.03.08-1.1-.34-2.49-.43-.69-.07-1.28.11-1.53.47-.27.34-.2.64-.25.65Z"/>
        <path class="cls-8" d="m219.4,0c.06.03-.64.85-.89,2.49-.13.81-.15,1.79-.14,2.89.01,1.09.06,2.3.31,3.52.55,2.45,1.55,4.55,2.49,5.89.47.68.89,1.2,1.18,1.56.3.36.48.53.46.55-.03.04-.83-.64-1.82-1.98-1-1.35-2.04-3.45-2.61-5.96-.25-1.26-.29-2.48-.29-3.58,0-1.1.04-2.1.21-2.93.15-.83.43-1.47.67-1.87.24-.41.42-.59.43-.58Z"/>
        <path class="cls-8" d="m222.41,6.91s.36.34.82.99c.46.65,1.04,1.59,1.55,2.7.51,1.11.84,2.16,1.02,2.94.18.78.24,1.27.2,1.27-.09.02-.49-1.9-1.5-4.08-1-2.18-2.17-3.76-2.09-3.82Z"/>
        <path class="cls-8" d="m221.43,10.53c.06-.05,1.04.94,2.33,2.09,1.28,1.16,2.31,2.12,2.25,2.18-.05.06-1.16-.8-2.45-1.96-1.29-1.16-2.19-2.26-2.12-2.32Z"/>
        <path class="cls-3" d="m236.66,24.19s-.03.03-.08.08c-.08.07-.17.14-.26.22-.22.19-.56.44-.99.74-.86.59-2.14,1.29-3.66,1.79-1.52.5-2.97.69-4.01.73-.52.02-.95.02-1.24,0-.12,0-.23-.02-.34-.02-.08,0-.12-.01-.12-.02,0,0,.04,0,.12,0,.11,0,.22,0,.34,0,.29,0,.71,0,1.23-.03,1.04-.06,2.47-.27,3.98-.76,1.51-.5,2.78-1.18,3.66-1.74.44-.28.78-.53,1.01-.7.09-.07.18-.14.27-.2.06-.04.1-.07.1-.06Z"/>
        <path class="cls-3" d="m240.09,31.23s-.03.03-.08.08c-.08.07-.17.14-.26.22-.22.19-.56.44-1,.73-.87.59-2.14,1.3-3.64,1.84-1.51.54-2.94.81-3.98.91-.52.05-.94.07-1.24.07-.12,0-.23,0-.34,0-.08,0-.12,0-.12,0,0,0,.04,0,.12-.02.11,0,.22-.01.34-.02.29-.01.71-.05,1.23-.11,1.03-.12,2.45-.4,3.95-.93,1.5-.54,2.76-1.23,3.64-1.8.44-.28.78-.52,1.02-.7.1-.07.19-.13.27-.2.06-.04.1-.07.1-.06Z"/>
        <path class="cls-3" d="m239.14,41.51s-.08.07-.25.18c-.16.11-.41.26-.72.43-.62.34-1.52.74-2.56,1.01-1.04.27-2.02.37-2.73.37-.35,0-.64,0-.83-.02-.2-.02-.3-.03-.3-.04s.11-.01.31,0c.2,0,.48,0,.83-.01.7-.03,1.67-.14,2.7-.4,1.03-.27,1.93-.65,2.55-.97.31-.16.56-.29.73-.39.17-.1.27-.15.27-.14Z"/>
        <path class="cls-3" d="m241.11,39.94s-.35.13-.79.21c-.44.08-.8.13-.81.09s.35-.13.79-.21c.44-.08.8-.13.81-.09Z"/>
        <path class="cls-3" d="m235.34,52.02s-.59.12-1.33.07c-.74-.05-1.31-.23-1.3-.26,0-.04.59.09,1.31.14.72.05,1.32.02,1.32.05Z"/>
        <path class="cls-3" d="m224.29,21.58s-.33.25-.78.5c-.44.25-.82.42-.83.39s.33-.25.78-.5c.44-.25.82-.42.83-.39Z"/>
        <path class="cls-3" d="m221.4,15.47s-.84.29-1.72.92c-.88.62-1.41,1.34-1.44,1.32-.01,0,.1-.2.33-.47.23-.27.59-.62,1.03-.94.45-.32.9-.54,1.23-.66.33-.13.55-.17.56-.16Z"/>
        <path class="cls-3" d="m226.64,22.24s.16-.79.03-1.76c-.12-.97-.52-1.68-.48-1.7.01,0,.13.16.26.46.13.3.27.73.34,1.23.06.5.04.95-.02,1.27-.05.32-.12.51-.13.51Z"/>
        <path class="cls-3" d="m244.65,3.25s-.2.26-.64.68c-.43.42-1.11.97-2.01,1.55-.91.58-2.05,1.16-3.35,1.73-1.3.57-2.75,1.14-4.22,1.85-1.47.71-2.81,1.52-3.86,2.46-1.05.94-1.8,1.99-2.27,2.95-.46.96-.64,1.82-.69,2.42-.05.6,0,.93-.03.93,0,0-.01-.08-.02-.24-.02-.16-.01-.39,0-.69.04-.6.21-1.47.66-2.45.46-.97,1.21-2.04,2.27-3,1.06-.96,2.41-1.78,3.88-2.49,1.48-.71,2.93-1.27,4.23-1.84,1.3-.56,2.44-1.14,3.35-1.7.91-.56,1.59-1.11,2.03-1.51.22-.2.39-.36.5-.48.11-.11.17-.17.17-.17Z"/>
        <path class="cls-3" d="m243.08,10.16s-.02.05-.08.13c-.07.11-.15.23-.24.37-.21.32-.54.76-.96,1.29-.85,1.06-2.15,2.44-3.79,3.72-1.65,1.28-3.3,2.19-4.55,2.75-.62.28-1.13.49-1.49.61-.15.05-.29.1-.41.14-.09.03-.15.05-.15.04,0,0,.05-.03.14-.07.12-.05.26-.11.41-.17.35-.14.86-.36,1.47-.65,1.23-.58,2.87-1.5,4.51-2.77,1.63-1.27,2.94-2.63,3.8-3.68.43-.52.77-.96.99-1.27.09-.13.18-.24.26-.35.06-.08.09-.12.1-.12Z"/>
        <path class="cls-3" d="m218.78,1.98s.72.27,1.76.93c1.05.66,2.39,1.75,3.57,3.23,1.17,1.49,1.93,3.04,2.33,4.21.4,1.17.51,1.93.51,1.93,0,0-.02-.04-.04-.13-.03-.12-.07-.25-.1-.38-.08-.33-.23-.81-.44-1.39-.42-1.15-1.18-2.69-2.34-4.17-1.17-1.47-2.49-2.56-3.52-3.23-.51-.34-.94-.59-1.25-.75-.13-.07-.24-.13-.35-.19-.08-.04-.12-.07-.12-.07Z"/>
      </g>
      <g>
        <g>
          <path class="cls-8" d="m189.59,23.87c.23,3.09-1.81,5.84-3.86,8.16-2.05,2.31-4.34,4.73-4.78,7.79-.79,5.43,4.53,10.46,3.43,15.84-.59,2.88-2.94,5.19-3.36,8.1-.41,2.81,1.1,5.57,2.97,7.71,1.87,2.14,4.03,1.83,5.69,4.14,1.74,2.44,4.54,4.93,7.17,6.37,5.95,3.26,13.1-1.46,15.97-2.3"/>
          <path class="cls-8" d="m234.61,36.51c2.74-1.19,2.96-11.03-3.93-12.17-2.76-.46-5.06-1.8-7.38-3.37-2.06-1.38-2.67-4.9-4.41-6.66-4.27-4.33-10.94-6.12-16.8-4.52-5.87,1.6-10.7,6.53-12.18,12.43-1,3.98-.32,8.7,2.82,11.34,3.65,3.07,9.05,2.39,13.72,1.43,4.67-.96,9.96-1.9,13.86.84,2.35,1.65,3.7,4.35,5.14,6.84,1.44,2.49,3.24,5.03,5.96,5.97,0,0,2.07,4.87.38,8.25-1.69,3.39,1.99-2.39,1.99-2.39,0,0,6.7-11.92.82-18"/>
          <g>
            <g>
              <path class="cls-2" d="m199.74,105.54c-.04-6.42,0-24.45,0-24.42,0,0-10.2-1.72-12.28-15.03-1.04-6.62-.68-17.48-.1-26.35.52-7.99,5.83-17.77,13.79-16.91l24.83,6.34c2.42.26,4.23,2.33,4.18,4.76h0l-1.51,61.67-28.91,9.94Z"/>
              <g>
                <path class="cls-8" d="m191.58,47.35c-.03.9.7,1.67,1.64,1.73.94.05,1.73-.63,1.76-1.54.03-.9-.7-1.67-1.64-1.73-.94-.05-1.73.63-1.77,1.54Z"/>
                <path class="cls-8" d="m189.69,45.39c.21.22,1.51-.73,3.34-.72,1.84-.02,3.18.93,3.38.71.1-.1-.12-.5-.7-.93-.58-.43-1.56-.84-2.71-.84-1.14,0-2.11.42-2.66.85-.57.43-.76.83-.65.93Z"/>
              </g>
              <path class="cls-8" d="m207.75,48.32c.21.22,1.51-.73,3.34-.72,1.83-.02,3.18.93,3.38.71.1-.1-.11-.5-.7-.93-.58-.43-1.56-.84-2.71-.84-1.14,0-2.11.42-2.66.85-.56.43-.76.83-.65.93Z"/>
              <path class="cls-8" d="m201.05,59.38c0-.1-1.13-.3-2.98-.55-.47-.05-.91-.14-.99-.46-.11-.34.09-.84.32-1.39.44-1.13.91-2.32,1.4-3.57,1.94-5.08,3.34-9.26,3.14-9.34-.21-.08-1.94,3.98-3.88,9.06-.47,1.25-.91,2.45-1.34,3.59-.18.53-.49,1.14-.25,1.84.13.35.47.61.77.69.3.09.56.1.8.11,1.86.1,3.02.12,3.02.01Z"/>
              <path class="cls-1" d="m199.74,81.12s8.95.6,17.84-4.72c-.15.03-4.91,9.25-17.67,7.86l-.17-3.14Z"/>
              <path class="cls-1" d="m201.58,64.69c-.22-1.13,1.11-1.5,2.09-2.1.98-.61,1.54-1.42,2.46-.72.52.4.9.97,1.13,1.58.16.41.26.86.18,1.3-.09.53-.43.99-.82,1.36-.55.52-1.24.92-1.99,1.04-.75.13-1.56-.04-2.16-.51-.6-.47-.95-1.26-.82-2.01"/>
              <path class="cls-8" d="m206.46,60.67c-.3-.02-.31,1.98-2.02,3.39-1.71,1.42-3.83,1.19-3.85,1.47-.03.12.47.39,1.37.41.88.03,2.17-.25,3.21-1.11,1.04-.87,1.49-2.02,1.56-2.84.08-.83-.14-1.33-.28-1.32Z"/>
            </g>
            <path class="cls-8" d="m207.48,44.22c.18.5,2.02.27,4.17.53,2.16.22,3.9.86,4.18.41.13-.21-.17-.68-.88-1.17-.7-.48-1.81-.95-3.1-1.09-1.29-.14-2.48.06-3.26.38-.79.32-1.19.71-1.11.95Z"/>
            <path class="cls-8" d="m189.95,39.04c.32.42,1.59-.01,3.11-.03,1.52-.07,2.81.29,3.11-.15.13-.21-.07-.63-.63-1.03-.55-.39-1.48-.72-2.53-.69-1.05.03-1.95.41-2.48.83-.54.43-.72.86-.57,1.06Z"/>
          </g>
          <path class="cls-8" d="m231.61,73.7c-3.66.74-3.99-1.13-6.72-3.67-2.74-2.54-4.15-6.44-3.68-10.14.41-3.27,2.18-6.6,1.04-9.69-1.5-4.09-7.23-5.35-8.76-9.43-.88-2.37-.09-5.15-1.09-7.47-.94-2.19-3.24-3.45-5.48-4.26-2.24-.81-4.64-1.37-6.52-2.83-1.88-1.46-3.05-4.22-1.84-6.27,9.93,1.19,19.72,3.57,29.09,7.07,2.17.81,4.45,1.79,5.74,3.72,1.36,2.04,1.29,4.68,1.18,7.13-.56,11.95-1.12,23.91-1.67,35.86"/>
        </g>
        <path class="cls-7" d="m240.09,69.23s.06-.05.15-.17c.08-.12.23-.28.37-.53.3-.48.66-1.26.88-2.33.21-1.06.23-2.44-.21-3.93-.42-1.49-1.45-3.09-3.1-4.17-1.58-1.11-3.64-1.89-4.94-3.66-.65-.87-.93-1.99-.72-3.13.18-1.14.7-2.26,1.16-3.45,1.02-2.39,1.03-5.36-.17-7.95-.6-1.28-1.5-2.48-2.7-3.36-1.19-.9-2.65-1.37-4.08-1.69-1.44-.33-2.88-.52-4.21-.92-1.33-.4-2.6-.99-3.53-1.93-.95-.92-1.35-2.2-1.53-3.49-.18-1.29-.28-2.62-.63-3.87-.65-2.5-1.92-4.71-3.59-6.3-1.67-1.6-3.72-2.52-5.66-2.81-1.94-.3-3.77.06-5.15.78-1.39.71-2.36,1.69-2.98,2.58-.62.9-.91,1.71-1.04,2.26-.14.55-.13.86-.13.86.09.04.1-1.25,1.36-2.98.63-.84,1.59-1.77,2.94-2.42,1.33-.66,3.08-.98,4.94-.66,1.85.3,3.8,1.2,5.38,2.75,1.59,1.54,2.79,3.67,3.41,6.08.33,1.21.41,2.48.6,3.82.17,1.32.62,2.78,1.67,3.81,1.03,1.04,2.39,1.67,3.77,2.09,1.4.42,2.84.61,4.25.94,1.4.32,2.77.76,3.87,1.59,1.11.81,1.95,1.92,2.53,3.13,1.13,2.44,1.15,5.22.19,7.51-.44,1.17-.97,2.32-1.16,3.57-.22,1.24.11,2.56.84,3.49,1.45,1.91,3.57,2.65,5.1,3.72,1.59,1.02,2.58,2.49,3.02,3.92.46,1.42.48,2.76.3,3.79-.36,2.11-1.25,3.03-1.17,3.07Z"/>
      </g>
      <g>
        <g>
          <path class="cls-8" d="m222.77,56c-3.01,6.94-3.57,14.91-1.56,22.2.6,2.18,1.43,4.44.92,6.64-.56,2.38-2.55,4.1-4,6.07-2.5,3.39-3.48,7.86-2.61,11.98.86,4.12,3.55,7.82,7.21,9.92.38-2.19,2.42-3.68,4.43-4.63,2.01-.95,4.23-1.66,5.76-3.27,1.53-1.61,1.97-4.56.18-5.89,5.12-1.34,8.03-7.43,6.95-12.61-1.08-5.19-5.3-9.28-10.09-11.53"/>
          <path class="cls-8" d="m228.24,107.69c-.92.5-1.81.95-1.92,1.99-.13,1.22,1.04,3.36,1.46,4.51.82,2.25.2,4.96-1.52,6.64-1.72,1.67-4.44,2.22-6.68,1.34,1.64.13,3.03-1.47,3.18-3.11.15-1.64-.65-3.22-1.63-4.54-.98-1.32-2.16-2.5-2.99-3.92-1.69-2.89-4.19-10.76-2.26-15.17"/>
        </g>
        <path class="cls-7" d="m232.9,99.22s.1-.1.31-.27c.21-.16.52-.41.91-.74.78-.66,1.88-1.66,2.99-3.09,1.11-1.43,2.24-3.33,2.84-5.66.58-2.31.62-5.06-.38-7.64-.5-1.29-1.24-2.43-2.11-3.4-.86-.99-1.79-1.84-2.67-2.68-.88-.83-1.7-1.64-2.39-2.49-.69-.84-1.21-1.72-1.57-2.58-.75-1.7-.77-3.28-.51-4.28.13-.5.3-.87.44-1.1.14-.23.22-.35.22-.35.04.02-.32.49-.55,1.48-.22.98-.16,2.51.6,4.17.36.83.88,1.68,1.56,2.5.68.82,1.51,1.62,2.39,2.44.88.83,1.82,1.69,2.7,2.69.88.99,1.65,2.17,2.16,3.49,1.03,2.65.97,5.47.36,7.82-.62,2.37-1.79,4.29-2.94,5.72-1.15,1.44-2.28,2.42-3.09,3.05-.4.32-.73.55-.95.7-.22.15-.34.22-.35.22Z"/>
      </g>
    </g>
  </g>
  <g>
    <path class="cls-6" d="m7.97,45.69v10.09h-1.39v-8.9H2.4v8.9h-1.39v-10.09h6.95Z"/>
    <path class="cls-6" d="m16.25,48.97c.6.72.9,1.7.9,2.94,0,.8-.14,1.51-.41,2.12-.27.61-.67,1.08-1.19,1.42-.52.34-1.13.51-1.84.51-1.08,0-1.93-.36-2.53-1.08-.61-.72-.91-1.7-.91-2.94,0-.8.14-1.51.41-2.12.27-.61.67-1.08,1.19-1.42.52-.34,1.14-.51,1.86-.51,1.08,0,1.93.36,2.53,1.08Zm-4.53,2.96c0,1.96.66,2.94,1.99,2.94s1.99-.99,1.99-2.96-.66-2.94-1.98-2.94-2.01.99-2.01,2.96Z"/>
    <path class="cls-6" d="m25.42,54.7v3.28h-1.1l-.22-2.2h-4.95l-.22,2.2h-1.1v-3.28h.54c.23-.16.42-.33.56-.53.14-.2.26-.55.37-1.05.11-.5.2-1.22.27-2.18l.2-2.87h4.83v6.63h.81Zm-2.15-5.56h-2.27l-.12,1.63c-.07.91-.15,1.61-.23,2.09-.09.49-.21.86-.37,1.13-.16.26-.39.5-.7.72h3.69v-5.56Z"/>
    <path class="cls-6" d="m31.9,55.78v-6.62h-3.16v6.62h-1.35v-7.72h5.86v7.72h-1.35Z"/>
    <path class="cls-6" d="m42.04,55.78h-1.33v-3.48c0-.59.02-1.14.06-1.67.04-.53.07-.87.1-1.04l-3.24,6.19h-1.6v-7.72h1.33v3.48c0,.52-.02,1.05-.06,1.6-.04.55-.07.91-.09,1.06l3.19-6.15h1.63v7.72Z"/>
    <path class="cls-6" d="m53.69,48.06v7.72h-8.87v-7.72h1.32v6.63h2.47v-6.63h1.29v6.63h2.47v-6.63h1.32Z"/>
    <path class="cls-6" d="m62.47,55.78h-1.33v-3.48c0-.59.02-1.14.06-1.67.04-.53.07-.87.1-1.04l-3.24,6.19h-1.6v-7.72h1.33v3.48c0,.52-.02,1.05-.06,1.6-.04.55-.07.91-.09,1.06l3.19-6.15h1.63v7.72Z"/>
    <path class="cls-6" d="m70.47,48.06l-.16,1.1h-2.47v6.62h-1.35v-6.62h-2.55v-1.1h6.53Z"/>
    <path class="cls-6" d="m77.29,52.38h-4.92c.06.85.27,1.47.64,1.87.37.4.85.6,1.43.6.37,0,.71-.05,1.02-.16.31-.11.64-.28.98-.51l.59.81c-.82.64-1.72.97-2.69.97-1.07,0-1.91-.35-2.51-1.05s-.9-1.67-.9-2.9c0-.8.13-1.51.39-2.13.26-.62.63-1.11,1.11-1.46s1.05-.53,1.71-.53c1.02,0,1.81.34,2.36,1.01.55.67.82,1.61.82,2.8,0,.22,0,.45-.03.69Zm-1.3-1.08c0-.76-.15-1.34-.45-1.74-.3-.4-.76-.6-1.36-.6-1.1,0-1.7.81-1.8,2.43h3.62v-.09Z"/>
    <path class="cls-6" d="m83.54,48.09c.38.13.75.34,1.1.64l-.64.85c-.27-.2-.54-.34-.8-.43-.26-.09-.54-.14-.86-.14-.62,0-1.11.25-1.46.75-.35.5-.52,1.23-.52,2.21s.17,1.7.51,2.16c.34.46.83.7,1.46.7.3,0,.58-.05.83-.14.25-.09.54-.24.85-.45l.61.88c-.7.57-1.49.85-2.36.85-1.04,0-1.87-.35-2.47-1.05s-.9-1.67-.9-2.91c0-.82.14-1.54.41-2.15.27-.61.66-1.09,1.16-1.43.5-.34,1.1-.51,1.79-.51.46,0,.88.07,1.26.2Z"/>
    <path class="cls-6" d="m91.34,51.23c.52.45.78,1.09.78,1.92s-.29,1.53-.87,1.97c-.58.44-1.3.67-2.16.67h-2.62v-7.72h1.35v2.49h1.02c1.15,0,1.99.22,2.5.67Zm-1.11,3.13c.3-.24.45-.65.45-1.22,0-.54-.14-.93-.42-1.19-.28-.25-.76-.38-1.44-.38h-1.01v3.15h1.16c.55,0,.97-.12,1.27-.37Z"/>
    <path class="cls-6" d="m102.46,55.78v-3.4h-3.21v3.4h-1.35v-7.72h1.35v3.24h3.21v-3.24h1.35v7.72h-1.35Z"/>
    <path class="cls-6" d="m111.94,54.67c.11.15.27.27.48.34l-.31.94c-.4-.05-.72-.16-.97-.34-.24-.18-.42-.45-.54-.82-.52.77-1.28,1.16-2.3,1.16-.76,0-1.36-.21-1.8-.64-.44-.43-.66-.99-.66-1.68,0-.82.3-1.45.89-1.89.59-.44,1.43-.66,2.51-.66h1.19v-.57c0-.55-.13-.94-.4-1.17-.26-.23-.67-.35-1.22-.35s-1.26.14-2.08.41l-.34-.98c.96-.35,1.84-.53,2.66-.53.91,0,1.59.22,2.04.67.45.44.67,1.08.67,1.9v3.53c0,.31.05.54.16.7Zm-1.51-.93v-1.77h-1.01c-1.43,0-2.14.53-2.14,1.58,0,.46.11.81.34,1.04.22.23.56.35,1,.35.77,0,1.38-.4,1.82-1.2Z"/>
    <path class="cls-6" d="m122.98,55.78v-3.4h-3.21v3.4h-1.35v-7.72h1.35v3.24h3.21v-3.24h1.35v7.72h-1.35Z"/>
    <path class="cls-6" d="m132.47,54.67c.11.15.27.27.48.34l-.31.94c-.4-.05-.72-.16-.97-.34-.24-.18-.42-.45-.54-.82-.52.77-1.28,1.16-2.3,1.16-.76,0-1.36-.21-1.8-.64-.44-.43-.66-.99-.66-1.68,0-.82.3-1.45.89-1.89.59-.44,1.43-.66,2.51-.66h1.19v-.57c0-.55-.13-.94-.4-1.17-.26-.23-.67-.35-1.22-.35s-1.26.14-2.08.41l-.34-.98c.96-.35,1.84-.53,2.66-.53.91,0,1.59.22,2.04.67.45.44.67,1.08.67,1.9v3.53c0,.31.05.54.16.7Zm-1.51-.93v-1.77h-1.01c-1.43,0-2.14.53-2.14,1.58,0,.46.11.81.34,1.04.22.23.56.35,1,.35.77,0,1.38-.4,1.82-1.2Z"/>
    <path class="cls-6" d="m143.95,48.06v7.72h-8.87v-7.72h1.32v6.63h2.47v-6.63h1.29v6.63h2.47v-6.63h1.32Z"/>
    <path class="cls-6" d="m149.82,55.82c-.3.9-.72,1.61-1.27,2.13-.54.52-1.32.84-2.32.94l-.15-1.05c.51-.09.91-.21,1.22-.38.3-.17.54-.38.72-.64.18-.26.35-.61.51-1.05h-.45l-2.59-7.72h1.43l2.06,6.73,2.02-6.73h1.39l-2.58,7.76Z"/>
    <path class="cls-6" d="m6.65,65.74c.46.7.69,1.69.69,2.97,0,1.21-.26,2.19-.79,2.93s-1.27,1.11-2.24,1.11c-.86,0-1.53-.29-2.02-.88v3.66l-1.35.16v-10.83h1.16l.1,1.04c.28-.39.62-.69,1.02-.9.4-.21.82-.31,1.26-.31.99,0,1.71.35,2.17,1.05Zm-.76,2.97c0-1.97-.58-2.96-1.74-2.96-.38,0-.73.11-1.04.34-.31.22-.59.51-.82.86v3.76c.2.3.44.53.73.7.29.16.61.24.97.24,1.27,0,1.9-.98,1.9-2.94Z"/>
    <path class="cls-6" d="m14.85,71.47c.11.15.27.27.48.34l-.31.94c-.4-.05-.72-.16-.97-.34-.24-.18-.42-.45-.54-.82-.52.77-1.28,1.16-2.3,1.16-.76,0-1.36-.21-1.8-.64-.44-.43-.66-.99-.66-1.68,0-.82.3-1.45.89-1.89.59-.44,1.43-.66,2.51-.66h1.19v-.57c0-.55-.13-.94-.4-1.17-.26-.23-.67-.35-1.22-.35s-1.26.14-2.08.41l-.34-.98c.96-.35,1.84-.53,2.66-.53.91,0,1.59.22,2.04.67.45.44.67,1.08.67,1.9v3.53c0,.31.05.54.16.7Zm-1.51-.93v-1.77h-1.01c-1.43,0-2.14.53-2.14,1.58,0,.46.11.81.34,1.04.22.23.56.35,1,.35.77,0,1.38-.4,1.82-1.2Z"/>
    <path class="cls-6" d="m21.52,64.88c.38.13.75.34,1.1.64l-.64.85c-.27-.2-.54-.34-.8-.43-.26-.09-.54-.14-.86-.14-.62,0-1.11.25-1.46.75-.35.5-.52,1.23-.52,2.21s.17,1.7.51,2.16c.34.46.83.7,1.46.7.3,0,.58-.05.83-.14.25-.09.54-.24.85-.45l.61.88c-.7.57-1.49.85-2.36.85-1.04,0-1.87-.35-2.47-1.05s-.9-1.67-.9-2.91c0-.82.14-1.54.41-2.15.27-.61.66-1.09,1.16-1.43.5-.34,1.1-.51,1.79-.51.46,0,.88.07,1.26.2Z"/>
    <path class="cls-6" d="m28.23,64.88c.38.13.75.34,1.1.64l-.64.85c-.27-.2-.54-.34-.8-.43-.26-.09-.54-.14-.86-.14-.62,0-1.11.25-1.46.75-.35.5-.52,1.23-.52,2.21s.17,1.7.51,2.16c.34.46.83.7,1.46.7.3,0,.58-.05.83-.14.25-.09.54-.24.85-.45l.61.88c-.7.57-1.49.85-2.36.85-1.04,0-1.87-.35-2.47-1.05s-.9-1.67-.9-2.91c0-.82.14-1.54.41-2.15.27-.61.66-1.09,1.16-1.43.5-.34,1.1-.51,1.79-.51.46,0,.88.07,1.26.2Z"/>
    <path class="cls-6" d="m35.89,68.02c.52.45.78,1.09.78,1.92s-.29,1.53-.87,1.97c-.58.44-1.3.67-2.16.67h-2.47v-7.72h1.35v2.49h.88c1.15,0,1.99.22,2.5.67Zm-1.11,3.13c.3-.24.45-.65.45-1.22,0-.54-.14-.93-.42-1.19-.28-.25-.76-.38-1.44-.38h-.86v3.15h1.01c.55,0,.97-.12,1.27-.37Zm2.99-6.3h1.35v7.72h-1.35v-7.72Z"/>
    <path class="cls-6" d="m47.56,64.86v7.72h-1.35v-6.62h-2.39l-.22,2.58c-.09,1.04-.2,1.83-.33,2.34-.13.52-.34.92-.61,1.19s-.7.51-1.27.68l-.34-1.07c.33-.12.57-.27.7-.45.14-.19.24-.47.31-.85.07-.38.14-1.04.22-1.99l.31-3.53h4.96Z"/>
    <path class="cls-6" d="m56.12,64.86l-2.34,3.57,2.62,4.14h-1.6l-2.14-3.56h-.98v3.56h-1.35v-7.72h1.35v3.1h1.01l1.95-3.1h1.48Z"/>
    <path class="cls-6" d="m61.02,72.62c-.3.9-.72,1.61-1.27,2.13-.54.52-1.32.84-2.32.94l-.15-1.05c.51-.09.91-.21,1.22-.38.3-.17.54-.38.72-.64.18-.26.35-.61.51-1.05h-.45l-2.59-7.72h1.43l2.06,6.73,2.02-6.73h1.39l-2.58,7.76Z"/>
    <path class="cls-6" d="m75.02,72.57h-1.33v-3.48c0-.59.02-1.14.06-1.67.04-.53.07-.87.1-1.04l-3.24,6.19h-1.6v-7.72h1.33v3.48c0,.52-.02,1.05-.06,1.6-.04.55-.07.91-.09,1.06l3.19-6.15h1.63v7.72Z"/>
    <path class="cls-6" d="m86.19,72.57v-6.62h-3.16v6.62h-1.35v-7.72h5.86v7.72h-1.35Z"/>
    <path class="cls-6" d="m95.74,65.77c.6.72.9,1.7.9,2.94,0,.8-.14,1.51-.41,2.12-.27.61-.67,1.08-1.19,1.42-.52.34-1.13.51-1.84.51-1.08,0-1.93-.36-2.53-1.08-.61-.72-.91-1.7-.91-2.94,0-.8.14-1.51.41-2.12.27-.61.67-1.08,1.19-1.42.52-.34,1.14-.51,1.86-.51,1.08,0,1.93.36,2.53,1.08Zm-4.53,2.96c0,1.96.66,2.94,1.99,2.94s1.99-.99,1.99-2.96-.66-2.94-1.98-2.94-2.01.99-2.01,2.96Z"/>
    <path class="cls-6" d="m104.37,64.86v7.72h-1.35v-6.62h-2.39l-.22,2.58c-.09,1.04-.2,1.83-.33,2.34-.13.52-.34.92-.61,1.19s-.7.51-1.27.68l-.34-1.07c.33-.12.57-.27.7-.45.14-.19.24-.47.31-.85.07-.38.14-1.04.22-1.99l.31-3.53h4.96Z"/>
    <path class="cls-6" d="m110.24,72.62c-.3.9-.72,1.61-1.27,2.13-.54.52-1.32.84-2.32.94l-.15-1.05c.51-.09.91-.21,1.22-.38.3-.17.54-.38.72-.64.18-.26.35-.61.51-1.05h-.45l-2.59-7.72h1.43l2.06,6.73,2.02-6.73h1.39l-2.58,7.76Z"/>
    <path class="cls-6" d="m119.66,64.86v7.72h-1.35v-3.22c-.28.26-.63.47-1.05.62-.42.15-.84.23-1.28.23-.73,0-1.28-.2-1.65-.59-.37-.4-.56-.96-.56-1.69v-3.06h1.35v2.9c0,.49.1.84.3,1.06.2.22.51.33.93.33.34,0,.7-.08,1.08-.23.38-.16.67-.36.89-.6v-3.46h1.35Z"/>
    <path class="cls-6" d="m128.44,72.57h-1.33v-3.48c0-.59.02-1.14.06-1.67.04-.53.07-.87.1-1.04l-3.24,6.19h-1.6v-7.72h1.33v3.48c0,.52-.02,1.05-.06,1.6-.04.55-.07.91-.09,1.06l3.19-6.15h1.63v7.72Z"/>
    <path class="cls-6" d="m136.44,64.86l-.16,1.1h-2.47v6.62h-1.35v-6.62h-2.55v-1.1h6.53Z"/>
    <path class="cls-6" d="m143.26,69.18h-4.92c.06.85.27,1.47.64,1.87.37.4.85.6,1.43.6.37,0,.71-.05,1.02-.16.31-.11.64-.28.98-.51l.59.81c-.82.64-1.72.97-2.69.97-1.07,0-1.91-.35-2.51-1.05s-.9-1.67-.9-2.9c0-.8.13-1.51.39-2.13.26-.62.63-1.11,1.11-1.46s1.05-.53,1.71-.53c1.02,0,1.81.34,2.36,1.01.55.67.82,1.61.82,2.8,0,.22,0,.45-.03.69Zm-1.3-1.08c0-.76-.15-1.34-.45-1.74-.3-.4-.76-.6-1.36-.6-1.1,0-1.7.81-1.8,2.43h3.62v-.09Z"/>
    <path class="cls-5" d="m5,89.37v-6.19h-2.34v6.19H.57v-7.76h6.5v7.76h-2.08Z"/>
    <path class="cls-5" d="m15.11,82.46c.65.73.98,1.73.98,3.02,0,.82-.15,1.54-.45,2.16-.3.62-.73,1.1-1.29,1.44-.56.34-1.22.51-1.98.51-1.16,0-2.07-.36-2.73-1.09-.66-.73-.99-1.74-.99-3.02,0-.82.15-1.54.45-2.16.3-.62.73-1.1,1.29-1.44.56-.34,1.23-.51,2-.51,1.16,0,2.07.36,2.72,1.09Zm-3.9,1.08c-.26.42-.39,1.06-.39,1.94s.13,1.52.39,1.94c.26.41.65.62,1.16.62s.91-.21,1.16-.62.39-1.06.39-1.94-.13-1.52-.38-1.94c-.25-.41-.64-.62-1.16-.62s-.92.21-1.18.62Z"/>
    <path class="cls-5" d="m22.31,81.6c.41.15.81.39,1.18.71l-.91,1.23c-.25-.2-.5-.34-.74-.42-.24-.09-.5-.13-.78-.13-1.1,0-1.65.85-1.65,2.55,0,.86.14,1.47.42,1.84.28.37.69.56,1.22.56.27,0,.52-.04.75-.12.22-.08.49-.22.79-.42l.91,1.3c-.74.61-1.59.91-2.55.91-.76,0-1.42-.17-1.98-.5-.56-.33-.99-.8-1.3-1.41-.3-.61-.45-1.33-.45-2.14s.15-1.54.45-2.17c.3-.63.73-1.12,1.3-1.47.56-.35,1.21-.53,1.95-.53.52,0,.98.08,1.4.23Z"/>
    <path class="cls-5" d="m30.56,81.61l-.26,1.57h-2.2v6.19h-2.08v-6.19h-2.33v-1.57h6.87Z"/>
    <path class="cls-5" d="m37.13,82.46c.65.73.98,1.73.98,3.02,0,.82-.15,1.54-.45,2.16-.3.62-.73,1.1-1.29,1.44-.56.34-1.22.51-1.98.51-1.16,0-2.07-.36-2.73-1.09-.66-.73-.99-1.74-.99-3.02,0-.82.15-1.54.45-2.16.3-.62.73-1.1,1.29-1.44.56-.34,1.23-.51,2-.51,1.16,0,2.07.36,2.72,1.09Zm-3.9,1.08c-.26.42-.39,1.06-.39,1.94s.13,1.52.39,1.94c.26.41.65.62,1.16.62s.91-.21,1.16-.62.39-1.06.39-1.94-.13-1.52-.38-1.94c-.25-.41-.64-.62-1.16-.62s-.92.21-1.18.62Z"/>
    <path class="cls-5" d="m45.62,81.61v7.76h-2.08v-2.77h-1.14l-1.48,2.77h-2.24l1.82-3.25c-.83-.42-1.24-1.09-1.24-2.02,0-.82.3-1.44.9-1.86.6-.42,1.47-.63,2.6-.63h2.87Zm-2.08,3.7v-2.33h-.81c-.9,0-1.35.38-1.35,1.13,0,.8.43,1.2,1.3,1.2h.85Z"/>
    <path class="cls-5" d="m52.15,89.37v-3.16h-2.4v3.16h-2.08v-7.76h2.08v3.03h2.4v-3.03h2.08v7.76h-2.08Z"/>
    <path class="cls-5" d="m60.76,89.37v-3.16h-2.4v3.16h-2.08v-7.76h2.08v3.03h2.4v-3.03h2.08v7.76h-2.08Z"/>
    <path class="cls-5" d="m68.89,89.38c-.31.99-.8,1.75-1.47,2.28-.67.54-1.57.84-2.72.92l-.22-1.49c.74-.1,1.29-.27,1.63-.53.35-.25.63-.65.86-1.2h-.72l-2.42-7.76h2.21l1.55,6.41,1.64-6.41h2.15l-2.5,7.77Z"/>
    <path class="cls-5" d="m80.86,81.86c.53.33.94.8,1.23,1.42.29.62.44,1.35.44,2.2,0,.8-.14,1.51-.42,2.13-.28.62-.69,1.11-1.22,1.46-.53.35-1.16.53-1.88.53-.98,0-1.76-.3-2.36-.92-.6-.61-.96-1.45-1.08-2.53h-1.1v3.21h-2.08v-7.76h2.08v3.07h1.13c.15-1.01.51-1.81,1.11-2.41.59-.6,1.36-.9,2.32-.9.7,0,1.32.16,1.84.49Zm-.78,5.56c.22-.42.33-1.06.33-1.93,0-1.7-.46-2.55-1.39-2.55-.47,0-.82.2-1.05.61-.23.41-.34,1.05-.34,1.93s.11,1.5.34,1.93c.22.42.57.64,1.04.64.5,0,.86-.21,1.08-.63Z"/>
    <path class="cls-5" d="m92.33,81.6c.41.15.81.39,1.18.71l-.91,1.23c-.25-.2-.5-.34-.74-.42-.24-.09-.5-.13-.78-.13-1.1,0-1.65.85-1.65,2.55,0,.86.14,1.47.42,1.84.28.37.69.56,1.22.56.27,0,.52-.04.75-.12.22-.08.49-.22.79-.42l.91,1.3c-.74.61-1.59.91-2.55.91-.76,0-1.42-.17-1.98-.5-.56-.33-.99-.8-1.3-1.41-.3-.61-.45-1.33-.45-2.14s.15-1.54.45-2.17c.3-.63.73-1.12,1.3-1.47.56-.35,1.21-.53,1.95-.53.52,0,.98.08,1.4.23Z"/>
    <path class="cls-5" d="m101.39,81.61l-2.14,3.6,2.34,4.16h-2.24l-1.8-3.4h-.78v3.4h-2.08v-7.76h2.08v3.05h.82l1.74-3.05h2.05Z"/>
    <path class="cls-5" d="m109.25,89.37h-1.99v-2.94c0-.56.03-1.08.09-1.58.06-.5.12-.89.19-1.19l-2.75,5.71h-2.17v-7.76h1.99v2.97c0,.53-.03,1.05-.08,1.56s-.11.91-.18,1.18l2.71-5.71h2.2v7.76Z"/>
    <path class="cls-5" d="m118.16,87.81v3.92h-1.48l-.25-2.37h-4.44l-.25,2.37h-1.48v-3.92h.5c.19-.14.34-.3.46-.5.12-.2.23-.53.33-1,.1-.47.18-1.14.25-2.02l.2-2.69h5.33v6.21h.82Zm-2.78-4.79h-1.57l-.09,1.07c-.07.82-.15,1.47-.26,1.94-.1.47-.24.84-.41,1.11-.17.27-.4.49-.7.67h3.02v-4.79Z"/>
    <path class="cls-5" d="m126.13,81.61l-2.14,3.6,2.34,4.16h-2.24l-1.8-3.4h-.78v3.4h-2.08v-7.76h2.08v3.05h.82l1.74-3.05h2.05Z"/>
    <path class="cls-5" d="m131.36,89.38c-.31.99-.8,1.75-1.47,2.28-.67.54-1.57.84-2.72.92l-.22-1.49c.74-.1,1.29-.27,1.63-.53.35-.25.63-.65.86-1.2h-.72l-2.42-7.76h2.21l1.55,6.41,1.64-6.41h2.15l-2.5,7.77Z"/>
    <path class="cls-5" d="m142.77,79.5v9.87h-2.04v-7.82l-2.17,1.33-.91-1.41,3.28-1.98h1.83Z"/>
    <path class="cls-5" d="m150.61,81.01h-3.65v2.27c.48-.22.98-.34,1.49-.34.55,0,1.03.13,1.46.38.42.25.76.62,1,1.11.24.48.37,1.05.37,1.71s-.16,1.29-.47,1.81c-.31.52-.75.93-1.33,1.22-.57.29-1.23.44-1.98.44-1.27,0-2.33-.48-3.19-1.43l1.17-1.1c.55.62,1.2.94,1.96.94.54,0,.95-.16,1.25-.48.3-.32.45-.79.45-1.39,0-1.16-.5-1.74-1.49-1.74-.21,0-.42.03-.61.08-.19.05-.4.14-.62.27h-1.45v-5.24h5.89l-.25,1.51Z"/>
    <path class="cls-5" d="m155.84,79.62c.39.21.69.51.91.91.22.4.33.85.33,1.37s-.11.97-.33,1.37c-.22.4-.52.7-.91.91-.39.21-.82.31-1.31.31s-.91-.1-1.3-.31c-.39-.21-.69-.51-.92-.91s-.34-.85-.34-1.37.11-.97.34-1.37.53-.7.92-.91c.39-.21.82-.31,1.3-.31s.92.1,1.31.31Zm-2.32,2.28c0,.38.08.7.23.94.15.25.41.37.78.37.66,0,1-.44,1-1.32s-.33-1.32-1-1.32-1.01.44-1.01,1.32Zm6.95-3.05l1.32.83-6.79,10.23-1.3-.83,6.78-10.23Zm1.76,5.88c.39.21.69.51.91.91.22.4.33.85.33,1.37s-.11.97-.33,1.36c-.22.39-.52.69-.92.91-.39.21-.82.32-1.3.32s-.91-.11-1.3-.32c-.39-.21-.7-.52-.92-.91-.22-.39-.34-.84-.34-1.36s.11-.97.34-1.37c.22-.4.53-.7.92-.91.39-.21.82-.31,1.3-.31s.92.11,1.31.31Zm-2.32,2.28c0,.38.08.7.23.94.15.25.41.37.78.37.66,0,1-.44,1-1.32s-.33-1.32-1-1.32-1.01.44-1.01,1.32Z"/>
    <path class="cls-6" d="m5.49,106.16v-3.4h-3.21v3.4H.94v-7.72h1.35v3.24h3.21v-3.24h1.35v7.72h-1.35Z"/>
    <path class="cls-6" d="m14.98,105.05c.11.15.27.27.48.34l-.31.94c-.4-.05-.72-.16-.97-.34-.24-.18-.42-.45-.54-.82-.52.77-1.28,1.16-2.3,1.16-.76,0-1.36-.21-1.8-.64-.44-.43-.66-.99-.66-1.68,0-.82.3-1.45.89-1.89.59-.44,1.43-.66,2.51-.66h1.19v-.57c0-.55-.13-.94-.4-1.17-.26-.23-.67-.35-1.22-.35s-1.26.14-2.08.41l-.34-.98c.96-.35,1.84-.53,2.66-.53.91,0,1.59.22,2.04.67.45.44.67,1.08.67,1.9v3.53c0,.31.05.54.16.7Zm-1.51-.93v-1.77h-1.01c-1.43,0-2.14.53-2.14,1.58,0,.46.11.81.34,1.04.22.23.56.35,1,.35.77,0,1.38-.4,1.82-1.2Z"/>
    <path class="cls-6" d="m27.25,98.44l-2.34,3.57,2.62,4.14h-1.6l-2.14-3.56h-.98v3.56h-1.35v-7.72h1.35v3.1h1.01l1.95-3.1h1.48Z"/>
    <path class="cls-6" d="m34.36,99.35c.6.72.9,1.7.9,2.94,0,.8-.14,1.51-.41,2.12-.27.61-.67,1.08-1.19,1.42-.52.34-1.13.51-1.84.51-1.08,0-1.93-.36-2.53-1.08-.61-.72-.91-1.7-.91-2.94,0-.8.14-1.51.41-2.12.27-.61.67-1.08,1.19-1.42.52-.34,1.14-.51,1.86-.51,1.08,0,1.93.36,2.53,1.08Zm-4.53,2.96c0,1.96.66,2.94,1.99,2.94s1.99-.99,1.99-2.96-.66-2.94-1.98-2.94-2.01.99-2.01,2.96Z"/>
    <path class="cls-6" d="m42.04,106.16v-3.4h-3.21v3.4h-1.35v-7.72h1.35v3.24h3.21v-3.24h1.35v7.72h-1.35Z"/>
    <path class="cls-6" d="m51.95,105.08h1.17v3.28h-1.1l-.22-2.2h-5.64v-7.72h1.35v6.62h3.09v-6.62h1.35v6.63Z"/>
    <path class="cls-6" d="m60.38,102.76h-4.92c.06.85.27,1.47.64,1.87.37.4.85.6,1.43.6.37,0,.71-.05,1.02-.16.31-.11.64-.28.98-.51l.59.81c-.82.64-1.72.97-2.69.97-1.07,0-1.91-.35-2.51-1.05s-.9-1.67-.9-2.9c0-.8.13-1.51.39-2.13.26-.62.63-1.11,1.11-1.46s1.05-.53,1.71-.53c1.02,0,1.81.34,2.36,1.01.55.67.82,1.61.82,2.8,0,.22,0,.45-.03.69Zm-1.3-1.08c0-.76-.15-1.34-.45-1.74-.3-.4-.76-.6-1.36-.6-1.1,0-1.7.81-1.8,2.43h3.62v-.09Z"/>
    <path class="cls-6" d="m68.27,99.32c.46.7.69,1.69.69,2.97,0,1.21-.26,2.19-.79,2.93s-1.27,1.11-2.24,1.11c-.86,0-1.53-.29-2.02-.88v3.66l-1.35.16v-10.83h1.16l.1,1.04c.28-.39.62-.69,1.02-.9.4-.21.82-.31,1.26-.31.99,0,1.71.35,2.17,1.05Zm-.76,2.97c0-1.97-.58-2.96-1.74-2.96-.38,0-.73.11-1.04.34-.31.22-.59.51-.82.86v3.76c.2.3.44.53.73.7.29.16.61.24.97.24,1.27,0,1.9-.98,1.9-2.94Z"/>
    <path class="cls-6" d="m76.1,98.44l-.16,1.1h-2.47v6.62h-1.35v-6.62h-2.55v-1.1h6.53Z"/>
    <path class="cls-6" d="m82.22,101.61c.52.45.78,1.09.78,1.92s-.29,1.53-.87,1.97c-.58.44-1.3.67-2.16.67h-2.47v-7.72h1.35v2.49h.88c1.15,0,1.99.22,2.5.67Zm-1.11,3.13c.3-.24.45-.65.45-1.22,0-.54-.14-.93-.42-1.19-.28-.25-.76-.38-1.44-.38h-.86v3.15h1.01c.55,0,.97-.12,1.27-.37Zm2.99-6.3h1.35v7.72h-1.35v-7.72Z"/>
    <path class="cls-6" d="m98.12,106.16h-1.33v-3.48c0-.59.02-1.14.06-1.67.04-.53.07-.87.1-1.04l-3.24,6.19h-1.6v-7.72h1.33v3.48c0,.52-.02,1.05-.06,1.6-.04.55-.07.91-.09,1.06l3.19-6.15h1.63v7.72Z"/>
    <path class="cls-6" d="m104.18,98.51c.42.16.77.4,1.02.71.26.31.39.69.39,1.13s-.12.78-.37,1.05c-.25.27-.64.48-1.18.63.64.11,1.13.31,1.46.6.33.29.5.71.5,1.26,0,.8-.31,1.41-.93,1.82-.62.42-1.41.62-2.36.62-1.16,0-2.15-.32-2.97-.97l.7-.83c.34.24.69.42,1.03.54.35.12.74.18,1.19.18,1.26,0,1.89-.46,1.89-1.38,0-.45-.18-.76-.53-.94-.36-.18-.85-.27-1.49-.27h-1.02l.09-1.05h.79c.55,0,.99-.1,1.32-.29.33-.2.5-.5.5-.91,0-.38-.14-.66-.42-.83-.28-.17-.65-.26-1.11-.26-.4,0-.75.05-1.06.15-.31.1-.62.26-.93.48l-.64-.81c.39-.29.81-.51,1.26-.66s.96-.22,1.52-.22c.49,0,.94.08,1.37.24Z"/>
    <path class="cls-6" d="m117.46,105.05c.11.15.27.27.48.34l-.31.94c-.4-.05-.72-.16-.97-.34-.24-.18-.42-.45-.54-.82-.52.77-1.28,1.16-2.3,1.16-.76,0-1.36-.21-1.8-.64-.44-.43-.66-.99-.66-1.68,0-.82.3-1.45.89-1.89.59-.44,1.43-.66,2.51-.66h1.19v-.57c0-.55-.13-.94-.4-1.17-.26-.23-.67-.35-1.22-.35s-1.26.14-2.08.41l-.34-.98c.96-.35,1.84-.53,2.66-.53.91,0,1.59.22,2.04.67.45.44.67,1.08.67,1.9v3.53c0,.31.05.54.16.7Zm-1.51-.93v-1.77h-1.01c-1.43,0-2.14.53-2.14,1.58,0,.46.11.81.34,1.04.22.23.56.35,1,.35.77,0,1.38-.4,1.82-1.2Z"/>
    <path class="cls-6" d="m129.11,99.31c.4.69.61,1.69.61,2.99,0,1.23-.23,2.21-.7,2.94s-1.12,1.1-1.95,1.1c-.73,0-1.32-.33-1.77-.98v3.76l-1.29.16v-3.92c-.21.31-.49.55-.82.72-.33.17-.69.26-1.07.26-.78,0-1.4-.37-1.85-1.1s-.68-1.71-.68-2.94.2-2.28.59-2.98c.4-.7,1.05-1.05,1.95-1.05.79,0,1.42.28,1.87.85v-3.94l1.29.16v3.81c.45-.59,1.05-.88,1.8-.88.94,0,1.61.35,2.01,1.04Zm-5.81,5.7c.27-.17.51-.41.71-.71v-4.08c-.44-.59-.97-.88-1.6-.88-.45,0-.79.25-1.02.74-.23.49-.35,1.23-.35,2.22s.12,1.73.37,2.23c.24.5.59.75,1.02.75.31,0,.6-.08.87-.26Zm4.59-.49c.25-.5.38-1.24.38-2.23,0-1.97-.48-2.96-1.45-2.96-.61,0-1.12.3-1.52.91v4.07c.2.31.43.55.67.71.24.16.53.24.85.24.46,0,.81-.25,1.07-.75Z"/>
    <path class="cls-6" d="m138.02,106.16h-1.33v-3.48c0-.59.02-1.14.06-1.67.04-.53.07-.87.1-1.04l-3.24,6.19h-1.6v-7.72h1.33v3.48c0,.52-.02,1.05-.06,1.6-.04.55-.07.91-.09,1.06l3.19-6.15h1.63v7.72Z"/>
    <path class="cls-6" d="m149.67,98.44v7.72h-8.87v-7.72h1.32v6.63h2.47v-6.63h1.29v6.63h2.47v-6.63h1.32Z"/>
    <path class="cls-6" d="m158.45,106.16h-1.33v-3.48c0-.59.02-1.14.06-1.67.04-.53.07-.87.1-1.04l-3.24,6.19h-1.6v-7.72h1.33v3.48c0,.52-.02,1.05-.06,1.6-.04.55-.07.91-.09,1.06l3.19-6.15h1.63v7.72Z"/>
    <path class="cls-6" d="m162.33,104.59c.2.2.29.43.29.72s-.1.52-.29.72c-.2.2-.44.3-.73.3s-.52-.1-.72-.3c-.2-.2-.29-.44-.29-.72s.1-.52.29-.72c.2-.2.43-.29.72-.29s.54.1.73.29Zm0-8.52l-.15,6.72h-1.19l-.16-6.72h1.49Z"/>
  </g>
</svg>