<svg width="110" height="110" viewBox="0 0 110 110" fill="none" xmlns="http://www.w3.org/2000/svg">
<path d="M99.4074 0H10.5926C4.74247 0 0 4.74247 0 10.5926V99.4074C0 105.258 4.74247 110 10.5926 110H99.4074C105.258 110 110 105.258 110 99.4074V10.5926C110 4.74247 105.258 0 99.4074 0Z" fill="#0079FF"/>
<path d="M73.863 55.8067C82.443 49.4919 87.3808 39.486 89.3526 32.4704H77.6926C75.4437 38.2882 70.1067 48.343 59.4733 50.3148V32.4704H47.683V64.5578C30.8082 59.1637 30.4252 33.9126 30.4252 32.4704V32.4541L24.4363 32.4704H18.4474C18.4474 46.7297 24.7459 72.6245 47.6748 76.9348C49.4022 77.2445 51.2274 77.4482 53.1667 77.5215C53.6067 77.5378 54.0467 77.5378 54.4948 77.5378V77.5215H59.4652V61.763C69.8215 63.8163 76.0956 71.9971 79.2245 77.5378H91.5282C89.817 73.4882 84.4311 62.5452 73.8467 55.8067H73.863Z" fill="white"/>
</svg>
