<svg width="110" height="110" viewBox="0 0 110 110" fill="none" xmlns="http://www.w3.org/2000/svg">
<path d="M99.4074 0H10.5926C4.74247 0 0 4.74247 0 10.5926V99.4074C0 105.258 4.74247 110 10.5926 110H99.4074C105.258 110 110 105.258 110 99.4074V10.5926C110 4.74247 105.258 0 99.4074 0Z" fill="url(#paint0_linear_93_152)"/>
<path d="M37.2289 59.0171L43.7555 77.0815C43.7555 77.0815 44.5704 78.7682 45.4422 78.7682C46.3141 78.7682 59.3104 65.2504 59.3104 65.2504L73.757 37.343L37.457 54.3563L37.2207 59.0171H37.2289Z" fill="#C1DAEA"/>
<path d="M45.8822 63.6533L44.6274 76.9674C44.6274 76.9674 44.1059 81.0496 48.18 76.9674C52.2622 72.8852 56.1652 69.74 56.1652 69.74L45.8822 63.6533Z" fill="#9CC6D9"/>
<path d="M37.3511 59.6605L23.9311 55.285C23.9311 55.285 22.3259 54.6331 22.8474 53.1583C22.9533 52.8568 23.1652 52.5961 23.8089 52.148C26.783 50.0783 78.8578 31.3539 78.8578 31.3539C78.8578 31.3539 80.3244 30.8568 81.1963 31.1909C81.5956 31.3376 81.8481 31.5087 82.06 32.1361C82.1415 32.3643 82.1822 32.845 82.1741 33.3176C82.1741 33.6598 82.1252 33.9857 82.0926 34.4828C81.7748 39.5998 72.2822 77.7902 72.2822 77.7902C72.2822 77.7902 71.7118 80.0228 69.683 80.1042C68.9415 80.1287 68.037 79.982 66.9615 79.0531C62.9689 75.6146 49.1659 66.342 46.1185 64.305C45.9474 64.1909 45.8985 64.0443 45.8659 63.8976C45.8252 63.6857 46.0533 63.4168 46.0533 63.4168C46.0533 63.4168 70.0822 42.0605 70.7178 39.8198C70.7667 39.6487 70.5793 39.5591 70.3267 39.6324C68.7296 40.2191 41.0667 57.6887 38.0111 59.6198C37.8319 59.7339 37.3348 59.6605 37.3348 59.6605H37.3511Z" fill="white"/>
<defs>
<linearGradient id="paint0_linear_93_152" x1="55" y1="109.739" x2="55" y2="4.04149" gradientUnits="userSpaceOnUse">
<stop stop-color="#0093D4"/>
<stop offset="1" stop-color="#00B0E5"/>
</linearGradient>
</defs>
</svg>
